<svg id="Layer_1" data-name="Layer 1" xmlns="http://www.w3.org/2000/svg" viewBox="0 0 117.34 94.68"><path d="M107,57.83l-5.14-.08a1.77,1.77,0,0,1-1.38-.67,1.8,1.8,0,0,1-.36-1.5l3.37-16.43H91.88V57.56a7.79,7.79,0,0,0,7.79,7.79h5Z" transform="translate(-54.97 -11.89)"/><path d="M121.06,39.15l-3.36,9.73h5.86a1.81,1.81,0,0,1,1.4,3L113.85,65.35h9.38A7.79,7.79,0,0,0,131,57.56V39.15Z" transform="translate(-54.97 -11.89)"/><path d="M129.84,28.92H93.06A4.06,4.06,0,0,0,89,33h0A4.05,4.05,0,0,0,93.06,37h36.78a4,4,0,0,0,4-4.05h0A4.05,4.05,0,0,0,129.84,28.92Z" transform="translate(-54.97 -11.89)"/><path d="M43.71,0h2A2.06,2.06,0,0,1,47.8,2.06V15.22a0,0,0,0,1,0,0H41.65a0,0,0,0,1,0,0V2.06A2.06,2.06,0,0,1,43.71,0Z"/><path d="M120.12,11.89h6.15a0,0,0,0,1,0,0V25.05a2.06,2.06,0,0,1-2.06,2.06h-2a2.06,2.06,0,0,1-2.06-2.06V11.89a0,0,0,0,1,0,0Z" transform="translate(191.44 27.11) rotate(180)"/><path d="M123.53,50.53a.36.36,0,0,0-.33-.21h-7.89l5-14.54a.35.35,0,0,0-.34-.48H106.43a.35.35,0,0,0-.35.29l-4.16,20.28a.35.35,0,0,0,.07.3.38.38,0,0,0,.28.14l7.07.1-5.24,17a.36.36,0,0,0,.17.42.37.37,0,0,0,.17.05.35.35,0,0,0,.28-.14l18.76-22.81A.37.37,0,0,0,123.53,50.53Z" transform="translate(-54.97 -11.89)"/><path d="M76.58,82.5H71.4v2.67h5.79v3.17H67.54V73.86h9.35V77H71.4v2.34h5.18Z" transform="translate(-54.97 -11.89)"/><path d="M79.31,73.09h3.86V88.34H79.31Z" transform="translate(-54.97 -11.89)"/><path d="M88.7,84.42c.12.83,1.33,1.3,2.69,1.3a9.44,9.44,0,0,0,2.89-.41l.49,2.59a10.61,10.61,0,0,1-3.94.67c-3.71,0-5.8-2.06-5.8-5.4a5.38,5.38,0,0,1,5.45-5.64c3.4,0,4.86,2.51,4.86,5.41a7.37,7.37,0,0,1-.14,1.48Zm3.09-2.63a1.56,1.56,0,0,0-1.49-1.73,1.76,1.76,0,0,0-1.65,1.73Z" transform="translate(-54.97 -11.89)"/><path d="M105.16,88.13a8,8,0,0,1-2.9.44c-3.5,0-5.7-2.06-5.7-5.42,0-3,2.06-5.61,6.17-5.61a8.13,8.13,0,0,1,2.43.36l-.54,2.85a4.57,4.57,0,0,0-1.66-.26A2.34,2.34,0,0,0,100.51,83a2.39,2.39,0,0,0,2.54,2.55,4.34,4.34,0,0,0,1.69-.28Z" transform="translate(-54.97 -11.89)"/><path d="M111.37,74.77v3h2.19v2.84h-2.19v3c0,1.26.29,1.78,1.23,1.78a4.91,4.91,0,0,0,.91-.08v2.94a8,8,0,0,1-2.29.29,3.74,3.74,0,0,1-2.64-1,4.47,4.47,0,0,1-1-3.29v-3.7h-1.3V77.77h1.3V75.62Z" transform="translate(-54.97 -11.89)"/><path d="M115.34,81.34c0-1.68,0-2.69-.09-3.57h3.3l.14,1.91h.08a3.06,3.06,0,0,1,3.58-2.08v3.64a4.37,4.37,0,0,0-1-.11c-1.14,0-1.9.48-2.1,1.33a3.16,3.16,0,0,0-.06.66v5.22h-3.86Z" transform="translate(-54.97 -11.89)"/><path d="M127.77,74.86a1.82,1.82,0,0,1-2,1.83,1.84,1.84,0,1,1,2-1.83Zm-3.89,13.48V77.77h3.86V88.34Z" transform="translate(-54.97 -11.89)"/><path d="M138.19,88.13a7.86,7.86,0,0,1-2.89.44c-3.5,0-5.7-2.06-5.7-5.42,0-3,2.06-5.61,6.17-5.61a8.23,8.23,0,0,1,2.43.36l-.55,2.85a4.53,4.53,0,0,0-1.66-.26A2.35,2.35,0,0,0,133.54,83a2.4,2.4,0,0,0,2.55,2.55,4.37,4.37,0,0,0,1.69-.28Z" transform="translate(-54.97 -11.89)"/><path d="M146,88.34l-.21-.93h-.07a3.67,3.67,0,0,1-2.91,1.17,3.32,3.32,0,0,1-3.49-3.32c0-2.84,2.54-4.1,6.12-4.11v-.09c0-.44-.33-.9-1.73-.9a6.55,6.55,0,0,0-3,.78L140,78.49a9.37,9.37,0,0,1,4.35-1c3.63,0,4.87,2,4.87,4.67v3.57a15.12,15.12,0,0,0,.17,2.57Zm-.44-4.83c-1.57,0-2.46.44-2.46,1.37a1,1,0,0,0,1.09,1,1.44,1.44,0,0,0,1.32-1,2.31,2.31,0,0,0,.05-.54Z" transform="translate(-54.97 -11.89)"/><path d="M151.63,73.09h3.86V88.34h-3.86Z" transform="translate(-54.97 -11.89)"/><path d="M55,92.06a30.06,30.06,0,0,1,4.58-.31c2.76,0,4.5.45,5.93,1.44a6.33,6.33,0,0,1,2.61,5.56,7.2,7.2,0,0,1-2.52,6C64,106,61.62,106.5,58.81,106.5a26.63,26.63,0,0,1-3.84-.23Zm3.85,11.39a5.23,5.23,0,0,0,.82,0c2.5,0,4.35-1.35,4.35-4.61,0-2.84-1.68-4.17-4-4.17a5.19,5.19,0,0,0-1.18.1Z" transform="translate(-54.97 -11.89)"/><path d="M74,92.86a1.82,1.82,0,0,1-2,1.83,1.84,1.84,0,1,1,2-1.83ZM70.1,106.34V95.77H74v10.57Z" transform="translate(-54.97 -11.89)"/><path d="M76.44,103.09a6.9,6.9,0,0,0,2.92.8c.82,0,1.14-.18,1.14-.57s-.24-.56-1.37-.92c-2.31-.74-3.1-2-3.08-3.23,0-2.1,1.79-3.64,4.55-3.64a7.75,7.75,0,0,1,3.13.61l-.61,2.63a5.93,5.93,0,0,0-2.33-.59c-.66,0-1.05.18-1.05.6s.33.56,1.58,1c2.08.68,2.87,1.76,2.88,3.29,0,2-1.56,3.53-4.81,3.53a8.21,8.21,0,0,1-3.6-.75Z" transform="translate(-54.97 -11.89)"/><path d="M90.22,92.77v3h2.19v2.84H90.22v3c0,1.26.29,1.78,1.23,1.78a4.91,4.91,0,0,0,.91-.08v2.94a8,8,0,0,1-2.29.29,3.74,3.74,0,0,1-2.64-1,4.47,4.47,0,0,1-1-3.29v-3.7h-1.3V95.77h1.3V93.62Z" transform="translate(-54.97 -11.89)"/><path d="M94.19,99.34c0-1.68,0-2.69-.09-3.57h3.3l.14,1.91h.08a3.06,3.06,0,0,1,3.58-2.08v3.64a4.45,4.45,0,0,0-1-.11c-1.14,0-1.9.48-2.1,1.33a3.16,3.16,0,0,0-.06.66v5.22H94.19Z" transform="translate(-54.97 -11.89)"/><path d="M106.62,92.86a1.82,1.82,0,0,1-2,1.83,1.84,1.84,0,1,1,2-1.83Zm-3.89,13.48V95.77h3.86v10.57Z" transform="translate(-54.97 -11.89)"/><path d="M108.89,106.34c0-.69.09-2,.09-3.34V91.09h3.85v5.75h0a3.71,3.71,0,0,1,3-1.31c2.49,0,4.33,2.07,4.29,5.32,0,3.82-2.4,5.73-4.84,5.73a3.3,3.3,0,0,1-3-1.6h0l-.15,1.36Zm3.94-4.59a2.62,2.62,0,0,0,0,.52,1.6,1.6,0,0,0,1.52,1.28c1.13,0,1.86-.86,1.86-2.53,0-1.44-.58-2.52-1.87-2.52a1.57,1.57,0,0,0-1.51,1.31,3.07,3.07,0,0,0,0,.53Z" transform="translate(-54.97 -11.89)"/><path d="M132.41,102.74c0,1.49.05,2.7.09,3.6h-3.33L129,105h-.07a3.66,3.66,0,0,1-3.2,1.63c-2.34,0-3.72-1.52-3.72-4.58V95.77h3.86v5.61c0,1.35.44,2.09,1.34,2.09a1.3,1.3,0,0,0,1.25-.9,1.39,1.39,0,0,0,.09-.57V95.77h3.86Z" transform="translate(-54.97 -11.89)"/><path d="M139.05,92.77v3h2.18v2.84h-2.18v3c0,1.26.29,1.78,1.22,1.78a5.12,5.12,0,0,0,.92-.08v2.94a8.09,8.09,0,0,1-2.3.29,3.71,3.71,0,0,1-2.63-1,4.43,4.43,0,0,1-1-3.29v-3.7H134V95.77h1.3V93.62Z" transform="translate(-54.97 -11.89)"/><path d="M146.91,92.86a1.82,1.82,0,0,1-2,1.83A1.84,1.84,0,1,1,145,91,1.82,1.82,0,0,1,146.91,92.86ZM143,106.34V95.77h3.86v10.57Z" transform="translate(-54.97 -11.89)"/><path d="M160,101a5.33,5.33,0,0,1-5.68,5.63,5.23,5.23,0,0,1-5.59-5.45c0-3.36,2.2-5.6,5.79-5.6A5.18,5.18,0,0,1,160,101Zm-7.3.1c0,1.58.52,2.79,1.72,2.79,1,0,1.6-1.09,1.6-2.79,0-1.46-.47-2.78-1.61-2.78S152.71,99.67,152.71,101.05Z" transform="translate(-54.97 -11.89)"/><path d="M161.87,99.37c0-1.41,0-2.62-.09-3.6h3.33l.17,1.35h.08a3.79,3.79,0,0,1,3.15-1.59c2.45,0,3.79,1.69,3.79,4.57v6.24h-3.86v-5.76c0-1.21-.42-1.93-1.34-1.93a1.34,1.34,0,0,0-1.26.93,2,2,0,0,0-.11.78v6h-3.86Z" transform="translate(-54.97 -11.89)"/></svg>