<svg id="Layer_1" data-name="Layer 1" xmlns="http://www.w3.org/2000/svg" xmlns:xlink="http://www.w3.org/1999/xlink" viewBox="0 0 456.41 478.46"><defs><style>.cls-1{fill:url(#linear-gradient);}.cls-2{fill:url(#linear-gradient-2);}.cls-3{fill:url(#linear-gradient-3);}.cls-4{fill:url(#linear-gradient-4);}.cls-5{fill:url(#linear-gradient-5);}.cls-6{fill:url(#linear-gradient-6);}.cls-7{fill:url(#linear-gradient-7);}.cls-8{fill:url(#linear-gradient-8);}.cls-9{fill:url(#linear-gradient-9);}.cls-10{fill:url(#linear-gradient-10);}.cls-11{fill:url(#linear-gradient-11);}.cls-12,.cls-13,.cls-14,.cls-15,.cls-16,.cls-17,.cls-18,.cls-19,.cls-20,.cls-21,.cls-22,.cls-23{fill:#7b1315;}.cls-12{fill-opacity:0;}.cls-13{opacity:0.02;}.cls-121,.cls-122,.cls-123,.cls-124,.cls-125,.cls-126,.cls-127,.cls-128,.cls-129,.cls-13,.cls-130,.cls-131,.cls-132,.cls-14,.cls-15,.cls-16,.cls-17,.cls-18,.cls-19,.cls-20,.cls-21,.cls-22,.cls-23,.cls-38,.cls-39,.cls-40,.cls-41,.cls-42,.cls-71,.cls-72,.cls-75,.cls-76,.cls-79,.cls-80{isolation:isolate;}.cls-14{opacity:0.04;}.cls-15{opacity:0.05;}.cls-16{opacity:0.07;}.cls-17{opacity:0.09;}.cls-122,.cls-18{opacity:0.11;}.cls-124,.cls-19{opacity:0.13;}.cls-126,.cls-127,.cls-20,.cls-42{opacity:0.15;}.cls-128,.cls-21{opacity:0.16;}.cls-130,.cls-22{opacity:0.18;}.cls-132,.cls-23{opacity:0.2;}.cls-24{fill:url(#linear-gradient-12);}.cls-25{fill:url(#linear-gradient-13);}.cls-26{opacity:0.5;}.cls-27{fill:url(#radial-gradient);}.cls-28{fill:#231f20;}.cls-29{fill:url(#radial-gradient-2);}.cls-30{fill:#f3f3ef;}.cls-31{fill:url(#radial-gradient-3);}.cls-32{fill:url(#radial-gradient-4);}.cls-33{fill:url(#linear-gradient-14);}.cls-34{fill:url(#radial-gradient-5);}.cls-35{fill:url(#radial-gradient-6);}.cls-36{fill:url(#radial-gradient-7);}.cls-37{fill:url(#radial-gradient-8);}.cls-38,.cls-39,.cls-40,.cls-41,.cls-42{fill:#c22026;}.cls-38,.cls-43{opacity:0.8;}.cls-120,.cls-39{opacity:0.6;}.cls-40{opacity:0.4;}.cls-41{opacity:0.25;}.cls-44{fill:url(#radial-gradient-9);}.cls-45{fill:url(#radial-gradient-10);}.cls-46{fill:url(#radial-gradient-11);}.cls-47{fill:url(#radial-gradient-12);}.cls-48{fill:url(#radial-gradient-13);}.cls-49{opacity:0.95;}.cls-50{fill:url(#linear-gradient-15);}.cls-51{fill:url(#linear-gradient-16);}.cls-52{fill:url(#linear-gradient-17);}.cls-53{fill:url(#linear-gradient-18);}.cls-54{fill:url(#linear-gradient-19);}.cls-55{fill:url(#linear-gradient-20);}.cls-56{fill:url(#linear-gradient-21);}.cls-57{fill:url(#linear-gradient-22);}.cls-58{fill:url(#linear-gradient-23);}.cls-59{fill:url(#linear-gradient-24);}.cls-60{fill:url(#linear-gradient-25);}.cls-61{fill:url(#linear-gradient-26);}.cls-62{fill:url(#linear-gradient-27);}.cls-63{fill:url(#linear-gradient-28);}.cls-64{fill:url(#linear-gradient-29);}.cls-65{fill:url(#linear-gradient-30);}.cls-66{fill:url(#linear-gradient-31);}.cls-67{fill:url(#linear-gradient-32);}.cls-68{fill:url(#linear-gradient-33);}.cls-69{fill:url(#linear-gradient-34);}.cls-70{fill:url(#linear-gradient-35);}.cls-71,.cls-75,.cls-79{opacity:0.9;}.cls-71{fill:url(#linear-gradient-36);}.cls-72,.cls-76,.cls-80{opacity:0.7;}.cls-72{fill:url(#linear-gradient-37);}.cls-73{fill:url(#linear-gradient-38);}.cls-74{fill:url(#radial-gradient-14);}.cls-75{fill:url(#linear-gradient-39);}.cls-76{fill:url(#linear-gradient-40);}.cls-77{fill:url(#linear-gradient-41);}.cls-78{fill:url(#radial-gradient-15);}.cls-79{fill:url(#linear-gradient-42);}.cls-80{fill:url(#linear-gradient-43);}.cls-81{fill:url(#linear-gradient-44);}.cls-82{fill:url(#radial-gradient-16);}.cls-83{fill:url(#linear-gradient-45);}.cls-84{fill:url(#linear-gradient-46);}.cls-85{fill:url(#linear-gradient-47);}.cls-86{fill:url(#linear-gradient-48);}.cls-87{fill:#f9bbbc;}.cls-88{fill:url(#linear-gradient-49);}.cls-89{fill:url(#radial-gradient-17);}.cls-90{fill:url(#linear-gradient-50);}.cls-91{fill:url(#radial-gradient-18);}.cls-92{fill:url(#linear-gradient-51);}.cls-93{fill:url(#linear-gradient-52);}.cls-94{fill:url(#linear-gradient-53);}.cls-95{fill:url(#radial-gradient-19);}.cls-96{fill:url(#linear-gradient-54);}.cls-97{fill:url(#linear-gradient-55);}.cls-98{fill:url(#linear-gradient-56);}.cls-99{fill:url(#linear-gradient-57);}.cls-100{fill:url(#linear-gradient-58);}.cls-101{fill:url(#radial-gradient-20);}.cls-102{fill:url(#linear-gradient-59);}.cls-103{fill:url(#radial-gradient-21);}.cls-104{fill:url(#linear-gradient-60);}.cls-105{fill:url(#linear-gradient-61);}.cls-106{fill:url(#linear-gradient-62);}.cls-107{fill:url(#radial-gradient-22);}.cls-108{fill:url(#linear-gradient-63);}.cls-109{fill:url(#linear-gradient-64);}.cls-110{fill:url(#linear-gradient-65);}.cls-111{fill:url(#linear-gradient-66);}.cls-112{fill:url(#linear-gradient-67);}.cls-113{fill:url(#radial-gradient-23);}.cls-114{fill:url(#linear-gradient-68);}.cls-115{fill:url(#radial-gradient-24);}.cls-116{fill:url(#linear-gradient-69);}.cls-117{fill:url(#linear-gradient-70);}.cls-118{fill:url(#linear-gradient-71);}.cls-119{fill:url(#radial-gradient-25);}.cls-121{opacity:0.1;fill:url(#linear-gradient-72);}.cls-122{fill:url(#linear-gradient-73);}.cls-123{opacity:0.12;fill:url(#linear-gradient-74);}.cls-124{fill:url(#linear-gradient-75);}.cls-125{opacity:0.14;fill:url(#linear-gradient-76);}.cls-126{fill:url(#linear-gradient-77);}.cls-127{fill:url(#linear-gradient-78);}.cls-128{fill:url(#linear-gradient-79);}.cls-129{opacity:0.17;fill:url(#linear-gradient-80);}.cls-130{fill:url(#linear-gradient-81);}.cls-131{opacity:0.19;fill:url(#linear-gradient-82);}.cls-132{fill:#421313;}.cls-133{fill:url(#linear-gradient-83);}.cls-134{fill:url(#radial-gradient-26);}.cls-135{fill:url(#linear-gradient-84);}.cls-136{fill:url(#linear-gradient-85);}.cls-137{fill:url(#linear-gradient-86);}.cls-138{fill:url(#linear-gradient-87);}.cls-139{fill:url(#linear-gradient-88);}.cls-140{fill:url(#linear-gradient-89);}.cls-141{fill:url(#radial-gradient-27);}.cls-142{fill:url(#linear-gradient-90);}.cls-143{fill:url(#linear-gradient-91);}.cls-144{fill:url(#radial-gradient-28);}.cls-145{fill:url(#radial-gradient-29);}</style><linearGradient id="linear-gradient" x1="226.06" y1="292.68" x2="337.98" y2="180.41" gradientTransform="matrix(1, 0, 0, -1, -81.57, 565.49)" gradientUnits="userSpaceOnUse"><stop offset="0" stop-color="#961b1e"/><stop offset="1" stop-color="#e93f42"/></linearGradient><linearGradient id="linear-gradient-2" x1="270.02" y1="240.58" x2="245.49" y2="198.09" xlink:href="#linear-gradient"/><linearGradient id="linear-gradient-3" x1="113.9" y1="199.56" x2="225.11" y2="88.7" xlink:href="#linear-gradient"/><linearGradient id="linear-gradient-4" x1="229.57" y1="210.15" x2="193.6" y2="147.84" xlink:href="#linear-gradient"/><linearGradient id="linear-gradient-5" x1="107.77" y1="126.09" x2="278.76" y2="97.44" xlink:href="#linear-gradient"/><linearGradient id="linear-gradient-6" x1="155.28" y1="267.03" x2="316.97" y2="107.1" xlink:href="#linear-gradient"/><linearGradient id="linear-gradient-7" x1="367.35" y1="397" x2="322.16" y2="245.19" xlink:href="#linear-gradient"/><linearGradient id="linear-gradient-8" x1="327.89" y1="269.69" x2="441.22" y2="386.9" xlink:href="#linear-gradient"/><linearGradient id="linear-gradient-9" x1="458.27" y1="465.66" x2="561.68" y2="533.21" xlink:href="#linear-gradient"/><linearGradient id="linear-gradient-10" x1="352.8" y1="240.51" x2="674.08" y2="148.01" xlink:href="#linear-gradient"/><linearGradient id="linear-gradient-11" x1="331.04" y1="525.98" x2="530.16" y2="340.27" xlink:href="#linear-gradient"/><linearGradient id="linear-gradient-12" x1="272.85" y1="437.46" x2="394.12" y2="232.06" gradientTransform="matrix(1, 0, 0, -1, -20, 570.11)" gradientUnits="userSpaceOnUse"><stop offset="0.06" stop-color="#361213"/><stop offset="0.23" stop-color="#381213"/><stop offset="0.32" stop-color="#401314"/><stop offset="0.39" stop-color="#4e121c"/><stop offset="0.42" stop-color="#5a0922"/><stop offset="0.47" stop-color="#5f0724"/><stop offset="0.53" stop-color="#6d1c32"/><stop offset="0.6" stop-color="#9c1b38"/><stop offset="0.66" stop-color="#9c5964"/><stop offset="0.69" stop-color="#ae6975"/><stop offset="0.7" stop-color="#a4616c"/><stop offset="0.73" stop-color="#9b2641"/><stop offset="0.76" stop-color="#6e1e34"/><stop offset="0.79" stop-color="#610825"/><stop offset="0.81" stop-color="#5a0922"/><stop offset="0.86" stop-color="#4a121a"/><stop offset="0.94" stop-color="#3b1314"/><stop offset="1" stop-color="#361213"/></linearGradient><linearGradient id="linear-gradient-13" x1="-159.27" y1="-1507" x2="32.27" y2="-1507" gradientTransform="matrix(0.87, 0.5, 0, -1.15, 360.92, -1463.12)" gradientUnits="userSpaceOnUse"><stop offset="0" stop-color="#5a0922"/><stop offset="0.2" stop-color="#481218"/><stop offset="0.49" stop-color="#361213"/><stop offset="1" stop-color="#151120"/></linearGradient><radialGradient id="radial-gradient" cx="359.76" cy="386.15" r="45.97" gradientTransform="matrix(1, 0, 0, -1, -20, 570.11)" gradientUnits="userSpaceOnUse"><stop offset="0" stop-color="#fff"/><stop offset="1" stop-color="#010101"/></radialGradient><radialGradient id="radial-gradient-2" cx="324.16" cy="3115.9" r="91.11" gradientTransform="matrix(0.86, 0.5, 0.75, -1.29, -2323.03, 4091.09)" gradientUnits="userSpaceOnUse"><stop offset="0" stop-color="#f36e52"/><stop offset="0.41" stop-color="#c22026"/><stop offset="0.62" stop-color="#c02026"/><stop offset="0.82" stop-color="#c22026"/><stop offset="0.99" stop-color="#a02739"/><stop offset="1" stop-color="#a1283c"/></radialGradient><radialGradient id="radial-gradient-3" cx="329.64" cy="3115.41" r="65.1" gradientTransform="matrix(0.86, 0.5, 0.76, -1.29, -2337.39, 4106.73)" xlink:href="#radial-gradient-2"/><radialGradient id="radial-gradient-4" cx="252.18" cy="4264.61" r="39.06" gradientTransform="matrix(1, 0, 0, -1, 53.12, 652.6)" xlink:href="#radial-gradient-2"/><linearGradient id="linear-gradient-14" x1="307.23" y1="320.67" x2="333.99" y2="337.6" gradientTransform="matrix(0.86, 0.5, 0.5, -0.86, -143.14, 360.54)" gradientUnits="userSpaceOnUse"><stop offset="0.04" stop-color="#c22026"/><stop offset="0.24" stop-color="#d12027"/><stop offset="0.65" stop-color="#e84853"/><stop offset="1" stop-color="#f36e52"/></linearGradient><radialGradient id="radial-gradient-5" cx="335.07" cy="3119.28" r="85.16" gradientTransform="matrix(1, 0, 0, -1.5, -20, 4913.61)" gradientUnits="userSpaceOnUse"><stop offset="0" stop-color="#fff"/><stop offset="0.07" stop-color="#d9d8d6"/><stop offset="0.16" stop-color="#aca4a7"/><stop offset="0.26" stop-color="#7e797a"/><stop offset="0.37" stop-color="#794652"/><stop offset="0.47" stop-color="#3a3338"/><stop offset="0.59" stop-color="#1e1e1e"/><stop offset="0.7" stop-color="#111"/><stop offset="0.84" stop-color="#0c0c0c"/><stop offset="1" stop-color="#010101"/></radialGradient><radialGradient id="radial-gradient-6" cx="332.1" cy="4183.66" r="60.91" gradientTransform="matrix(1, 0, 0, -1, -20, 570.11)" xlink:href="#radial-gradient-5"/><radialGradient id="radial-gradient-7" cx="329.16" cy="4183.03" r="36.66" gradientTransform="matrix(1, 0, 0, -1, -20, 570.11)" xlink:href="#radial-gradient-5"/><radialGradient id="radial-gradient-8" cx="326.38" cy="332.44" r="12.37" gradientTransform="matrix(1, 0, 0, -1, -20, 570.11)" xlink:href="#radial-gradient-5"/><radialGradient id="radial-gradient-9" cx="295.43" cy="169.12" r="29.02" gradientTransform="matrix(1, 0, 0, -1, -81.57, 565.49)" gradientUnits="userSpaceOnUse"><stop offset="0" stop-color="#fff"/><stop offset="1" stop-color="#5e0b0c"/></radialGradient><radialGradient id="radial-gradient-10" cx="353.57" cy="230.47" r="37.75" xlink:href="#radial-gradient-9"/><radialGradient id="radial-gradient-11" cx="242.64" cy="119.74" r="32.82" xlink:href="#radial-gradient-9"/><radialGradient id="radial-gradient-12" cx="452.58" cy="314.34" r="36.84" xlink:href="#radial-gradient-9"/><radialGradient id="radial-gradient-13" cx="479.09" cy="478.64" r="77.21" xlink:href="#radial-gradient-9"/><linearGradient id="linear-gradient-15" x1="3210.46" y1="320.61" x2="3196.34" y2="296.14" gradientTransform="matrix(1, 0, 0, -1, -2791.16, 535.49)" xlink:href="#linear-gradient"/><linearGradient id="linear-gradient-16" x1="3201.71" y1="230.04" x2="3326.82" y2="239.65" gradientTransform="matrix(1, 0, 0, -1, -2791.16, 535.49)" xlink:href="#linear-gradient"/><linearGradient id="linear-gradient-17" x1="3153.2" y1="237.27" x2="3229.11" y2="224.55" gradientTransform="matrix(1, 0, 0, -1, -2791.16, 535.49)" xlink:href="#linear-gradient"/><linearGradient id="linear-gradient-18" x1="3184.23" y1="230.65" x2="3218.06" y2="230.65" gradientTransform="matrix(1, 0, 0, -1, -2791.16, 535.49)" xlink:href="#linear-gradient"/><linearGradient id="linear-gradient-19" x1="3186.22" y1="279.07" x2="3172.1" y2="254.6" gradientTransform="matrix(1, 0, 0, -1, -2791.16, 535.49)" xlink:href="#linear-gradient"/><linearGradient id="linear-gradient-20" x1="3178.07" y1="202.58" x2="3293.64" y2="211.45" gradientTransform="matrix(1, 0, 0, -1, -2791.16, 535.49)" xlink:href="#linear-gradient"/><linearGradient id="linear-gradient-21" x1="3133.4" y1="209.01" x2="3200.75" y2="197.73" gradientTransform="matrix(1, 0, 0, -1, -2791.16, 535.49)" xlink:href="#linear-gradient"/><linearGradient id="linear-gradient-22" x1="3159.99" y1="203.14" x2="3193.82" y2="203.14" gradientTransform="matrix(1, 0, 0, -1, -2791.16, 535.49)" xlink:href="#linear-gradient"/><linearGradient id="linear-gradient-23" x1="3161.42" y1="235.99" x2="3147.28" y2="211.51" gradientTransform="matrix(1, 0, 0, -1, -2791.16, 535.49)" xlink:href="#linear-gradient"/><linearGradient id="linear-gradient-24" x1="3153.91" y1="174.54" x2="3259.29" y2="182.62" gradientTransform="matrix(1, 0, 0, -1, -2791.16, 535.49)" xlink:href="#linear-gradient"/><linearGradient id="linear-gradient-25" x1="3113.36" y1="180.12" x2="3171.55" y2="170.38" gradientTransform="matrix(1, 0, 0, -1, -2791.16, 535.49)" xlink:href="#linear-gradient"/><linearGradient id="linear-gradient-26" x1="3135.18" y1="175.05" x2="3169" y2="175.05" gradientTransform="matrix(1, 0, 0, -1, -2791.16, 535.49)" xlink:href="#linear-gradient"/><linearGradient id="linear-gradient-27" x1="3136.92" y1="188.81" x2="3122.78" y2="164.33" gradientTransform="matrix(1, 0, 0, -1, -2791.16, 535.49)" xlink:href="#linear-gradient"/><linearGradient id="linear-gradient-28" x1="3136.92" y1="141.29" x2="3122.78" y2="116.81" gradientTransform="matrix(1, 0, 0, -1, -2791.16, 535.49)" xlink:href="#linear-gradient"/><linearGradient id="linear-gradient-29" x1="3130.08" y1="143.36" x2="3224.63" y2="150.62" gradientTransform="matrix(1, 0, 0, -1, -2791.16, 535.49)" xlink:href="#linear-gradient"/><linearGradient id="linear-gradient-30" x1="3093.93" y1="148.05" x2="3142.37" y2="139.93" gradientTransform="matrix(1, 0, 0, -1, -2791.16, 535.49)" xlink:href="#linear-gradient"/><linearGradient id="linear-gradient-31" x1="3110.68" y1="143.82" x2="3144.5" y2="143.82" gradientTransform="matrix(1, 0, 0, -1, -2791.16, 535.49)" xlink:href="#linear-gradient"/><linearGradient id="linear-gradient-32" x1="3112.34" y1="152.43" x2="3098.22" y2="127.96" gradientTransform="matrix(1, 0, 0, -1, -2791.16, 535.49)" xlink:href="#linear-gradient"/><linearGradient id="linear-gradient-33" x1="3105.99" y1="118.22" x2="3192.94" y2="124.9" gradientTransform="matrix(1, 0, 0, -1, -2791.16, 535.49)" xlink:href="#linear-gradient"/><linearGradient id="linear-gradient-34" x1="3072.92" y1="122.26" x2="3114.52" y2="115.3" gradientTransform="matrix(1, 0, 0, -1, -2791.16, 535.49)" xlink:href="#linear-gradient"/><linearGradient id="linear-gradient-35" x1="3086.11" y1="118.64" x2="3119.93" y2="118.64" gradientTransform="matrix(1, 0, 0, -1, -2791.16, 535.49)" xlink:href="#linear-gradient"/><linearGradient id="linear-gradient-36" x1="530.54" y1="176.58" x2="557.58" y2="176.58" gradientTransform="matrix(1, 0, 0, -1, -20, 570.11)" gradientUnits="userSpaceOnUse"><stop offset="0" stop-color="#a61e22"/><stop offset="0.27" stop-color="#e93f42"/><stop offset="0.36" stop-color="#d41f2e"/><stop offset="0.46" stop-color="#a61e23"/><stop offset="0.54" stop-color="#a91e22"/><stop offset="0.59" stop-color="#961b1e"/><stop offset="0.68" stop-color="#a91e22"/><stop offset="0.82" stop-color="#a51e22"/><stop offset="0.9" stop-color="#c52126"/><stop offset="1" stop-color="#a61e22"/></linearGradient><linearGradient id="linear-gradient-37" x1="544.14" y1="213.79" x2="544.14" y2="162.6" gradientTransform="matrix(1, 0, 0, -1, -20, 570.11)" gradientUnits="userSpaceOnUse"><stop offset="0" stop-color="#f1635f"/><stop offset="0.08" stop-color="#ef4337"/><stop offset="0.21" stop-color="#ce2027"/><stop offset="0.34" stop-color="#951a1d"/><stop offset="0.46" stop-color="#620711"/><stop offset="0.59" stop-color="#231910"/><stop offset="0.73" stop-color="#13110f"/><stop offset="0.86" stop-color="#0e0d0d"/><stop offset="1" stop-color="#010101"/></linearGradient><linearGradient id="linear-gradient-38" x1="531.88" y1="264.82" x2="519.28" y2="244.09" xlink:href="#linear-gradient"/><radialGradient id="radial-gradient-14" cx="544.13" cy="217.5" r="10.17" xlink:href="#radial-gradient"/><linearGradient id="linear-gradient-39" x1="503.45" y1="148.57" x2="530.51" y2="148.57" xlink:href="#linear-gradient-36"/><linearGradient id="linear-gradient-40" x1="517.06" y1="174.4" x2="517.06" y2="128.73" xlink:href="#linear-gradient-37"/><linearGradient id="linear-gradient-41" x1="504.81" y1="224.61" x2="492.21" y2="203.9" xlink:href="#linear-gradient"/><radialGradient id="radial-gradient-15" cx="517.06" cy="177.3" r="10.17" xlink:href="#radial-gradient"/><linearGradient id="linear-gradient-42" x1="476.09" y1="119.58" x2="503.14" y2="119.58" xlink:href="#linear-gradient-36"/><linearGradient id="linear-gradient-43" x1="489.71" y1="133.45" x2="489.71" y2="101.94" xlink:href="#linear-gradient-37"/><linearGradient id="linear-gradient-44" x1="477.45" y1="183.43" x2="464.85" y2="162.71" xlink:href="#linear-gradient"/><radialGradient id="radial-gradient-16" cx="489.71" cy="136.12" r="10.17" xlink:href="#radial-gradient"/><linearGradient id="linear-gradient-45" x1="530.52" y1="218.79" x2="557.55" y2="218.79" gradientTransform="matrix(1, 0, 0, -1, -20, 570.11)" gradientUnits="userSpaceOnUse"><stop offset="0" stop-color="#f8aea3"/><stop offset="0.23" stop-color="#f9f9fa"/><stop offset="0.54" stop-color="#e3babb"/><stop offset="0.64" stop-color="#e1bcbc"/><stop offset="0.72" stop-color="#e8bfc0"/><stop offset="0.81" stop-color="#fac6c7"/><stop offset="0.86" stop-color="#facacb"/><stop offset="0.97" stop-color="#f8b4b9"/></linearGradient><linearGradient id="linear-gradient-46" x1="530.38" y1="221.42" x2="530.38" y2="221.42" xlink:href="#linear-gradient-45"/><linearGradient id="linear-gradient-47" x1="530.52" y1="217.23" x2="557.55" y2="217.23" xlink:href="#linear-gradient-45"/><linearGradient id="linear-gradient-48" x1="557.86" y1="221.39" x2="557.86" y2="221.39" xlink:href="#linear-gradient-45"/><linearGradient id="linear-gradient-49" x1="549.51" y1="280.28" x2="522.64" y2="253.24" gradientTransform="matrix(1, 0, 0, -1, -81.57, 565.49)" gradientUnits="userSpaceOnUse"><stop offset="0.04" stop-color="#f7a7ac"/><stop offset="0.4" stop-color="#f9b8b7"/><stop offset="1" stop-color="#fddfde"/></linearGradient><radialGradient id="radial-gradient-17" cx="538.22" cy="218.84" r="17.27" xlink:href="#radial-gradient"/><linearGradient id="linear-gradient-50" x1="535.16" y1="265.84" x2="515.07" y2="245.63" xlink:href="#linear-gradient-49"/><radialGradient id="radial-gradient-18" cx="548.96" cy="231.29" r="7.6" xlink:href="#radial-gradient"/><linearGradient id="linear-gradient-51" x1="558.88" y1="240.19" x2="539.92" y2="221.11" xlink:href="#linear-gradient-45"/><linearGradient id="linear-gradient-52" x1="536.9" y1="224.59" x2="551.79" y2="224.59" xlink:href="#linear-gradient-45"/><linearGradient id="linear-gradient-53" x1="529.29" y1="212.54" x2="546.62" y2="227.47" gradientTransform="matrix(1, 0, 0, -1, -20, 570.11)" xlink:href="#linear-gradient-49"/><radialGradient id="radial-gradient-19" cx="547.07" cy="227.44" r="6.09" gradientTransform="matrix(1, 0, 0, -1, -20, 570.11)" gradientUnits="userSpaceOnUse"><stop offset="0" stop-color="#c7a6ae"/><stop offset="0.12" stop-color="#968282"/><stop offset="0.24" stop-color="#cc2027"/><stop offset="0.36" stop-color="#68354e"/><stop offset="0.48" stop-color="#432232"/><stop offset="0.61" stop-color="#241614"/><stop offset="0.74" stop-color="#121010"/><stop offset="0.86" stop-color="#0c0c0c"/><stop offset="1" stop-color="#010101"/></radialGradient><linearGradient id="linear-gradient-54" x1="503.59" y1="178.85" x2="530.63" y2="178.85" xlink:href="#linear-gradient-45"/><linearGradient id="linear-gradient-55" x1="503.46" y1="181.48" x2="503.46" y2="181.48" xlink:href="#linear-gradient-45"/><linearGradient id="linear-gradient-56" x1="503.59" y1="177.29" x2="530.63" y2="177.29" xlink:href="#linear-gradient-45"/><linearGradient id="linear-gradient-57" x1="530.93" y1="181.42" x2="530.93" y2="181.42" xlink:href="#linear-gradient-45"/><linearGradient id="linear-gradient-58" x1="522.58" y1="240.33" x2="495.7" y2="213.29" xlink:href="#linear-gradient-49"/><radialGradient id="radial-gradient-20" cx="511.29" cy="178.91" r="17.27" xlink:href="#radial-gradient"/><linearGradient id="linear-gradient-59" x1="528.25" y1="195.88" x2="508.17" y2="175.67" gradientTransform="matrix(1, 0, 0, -1, -20, 570.11)" xlink:href="#linear-gradient-49"/><radialGradient id="radial-gradient-21" cx="522.03" cy="191.33" r="7.6" xlink:href="#radial-gradient"/><linearGradient id="linear-gradient-60" x1="531.92" y1="200.28" x2="512.97" y2="181.21" xlink:href="#linear-gradient-45"/><linearGradient id="linear-gradient-61" x1="510.2" y1="184.46" x2="525.1" y2="184.46" xlink:href="#linear-gradient-45"/><linearGradient id="linear-gradient-62" x1="502.57" y1="172.43" x2="519.91" y2="187.35" gradientTransform="matrix(1, 0, 0, -1, -20, 570.11)" xlink:href="#linear-gradient-49"/><radialGradient id="radial-gradient-22" cx="520.37" cy="187.31" r="6.09" xlink:href="#radial-gradient-19"/><linearGradient id="linear-gradient-63" x1="475.97" y1="137.57" x2="503.01" y2="137.57" xlink:href="#linear-gradient-45"/><linearGradient id="linear-gradient-64" x1="475.84" y1="140.23" x2="475.84" y2="140.23" xlink:href="#linear-gradient-45"/><linearGradient id="linear-gradient-65" x1="475.97" y1="136.03" x2="503.01" y2="136.03" xlink:href="#linear-gradient-45"/><linearGradient id="linear-gradient-66" x1="503.31" y1="140.17" x2="503.31" y2="140.17" xlink:href="#linear-gradient-45"/><linearGradient id="linear-gradient-67" x1="494.96" y1="199.08" x2="468.08" y2="172.04" xlink:href="#linear-gradient-49"/><radialGradient id="radial-gradient-23" cx="483.66" cy="137.66" r="17.27" xlink:href="#radial-gradient"/><linearGradient id="linear-gradient-68" x1="480.61" y1="184.64" x2="460.53" y2="164.44" xlink:href="#linear-gradient-49"/><radialGradient id="radial-gradient-24" cx="494.41" cy="150.08" r="7.6" xlink:href="#radial-gradient"/><linearGradient id="linear-gradient-69" x1="504.3" y1="159.03" x2="485.35" y2="139.95" xlink:href="#linear-gradient-45"/><linearGradient id="linear-gradient-70" x1="482.48" y1="143.38" x2="497.38" y2="143.38" xlink:href="#linear-gradient-45"/><linearGradient id="linear-gradient-71" x1="474.85" y1="131.36" x2="492.18" y2="146.29" gradientTransform="matrix(1, 0, 0, -1, -20, 570.11)" xlink:href="#linear-gradient-49"/><radialGradient id="radial-gradient-25" cx="492.65" cy="146.24" r="6.09" xlink:href="#radial-gradient-19"/><linearGradient id="linear-gradient-72" x1="5832.63" y1="1413.25" x2="5874.21" y2="1479.31" gradientTransform="matrix(0.56, -0.83, -0.83, -0.56, -1789.39, 5899.9)" gradientUnits="userSpaceOnUse"><stop offset="0" stop-color="#fff"/><stop offset="1" stop-color="#b5626d"/></linearGradient><linearGradient id="linear-gradient-73" x1="5423.05" y1="1741.17" x2="5465.6" y2="1808.8" gradientTransform="matrix(0.6, -0.75, -0.75, -0.6, -1630.73, 5415.44)" gradientUnits="userSpaceOnUse"><stop offset="0" stop-color="#b9539f"/><stop offset="1" stop-color="#aa5963"/></linearGradient><linearGradient id="linear-gradient-74" x1="4937.22" y1="2032.43" x2="4980.29" y2="2100.88" gradientTransform="matrix(0.64, -0.68, -0.68, -0.64, -1469.62, 4930.34)" gradientUnits="userSpaceOnUse"><stop offset="0" stop-color="#d6d4d5"/><stop offset="1" stop-color="#a1505a"/></linearGradient><linearGradient id="linear-gradient-75" x1="4367.77" y1="2250.05" x2="4410.76" y2="2318.36" gradientTransform="matrix(0.68, -0.6, -0.6, -0.68, -1309.38, 4446.52)" gradientUnits="userSpaceOnUse"><stop offset="0" stop-color="#c1bec0"/><stop offset="1" stop-color="#9b434e"/></linearGradient><linearGradient id="linear-gradient-76" x1="3754.26" y1="2359.77" x2="3796.48" y2="2426.85" gradientTransform="matrix(0.72, -0.53, -0.53, -0.72, -1147.62, 3960.12)" gradientUnits="userSpaceOnUse"><stop offset="0" stop-color="#ada8aa"/><stop offset="1" stop-color="#a1283c"/></linearGradient><linearGradient id="linear-gradient-77" x1="3107.71" y1="2353.01" x2="3148.44" y2="2417.73" gradientTransform="matrix(0.76, -0.45, -0.45, -0.76, -986.95, 3475.22)" gradientUnits="userSpaceOnUse"><stop offset="0" stop-color="#b38891"/><stop offset="1" stop-color="#a31d28"/></linearGradient><linearGradient id="linear-gradient-78" x1="2474.79" y1="2235.3" x2="2513.36" y2="2296.61" gradientTransform="matrix(0.8, -0.38, -0.38, -0.8, -822.16, 2993.18)" gradientUnits="userSpaceOnUse"><stop offset="0" stop-color="#9a7676"/><stop offset="1" stop-color="#7d2435"/></linearGradient><linearGradient id="linear-gradient-79" x1="1864.28" y1="1989.22" x2="1900.13" y2="2046.22" gradientTransform="matrix(0.84, -0.3, -0.3, -0.84, -664.29, 2507.92)" gradientUnits="userSpaceOnUse"><stop offset="0" stop-color="#8f5c5e"/><stop offset="1" stop-color="#72192a"/></linearGradient><linearGradient id="linear-gradient-80" x1="1339.91" y1="1647.4" x2="1372.66" y2="1699.42" gradientTransform="matrix(0.88, -0.23, -0.23, -0.88, -502.79, 2024.51)" gradientUnits="userSpaceOnUse"><stop offset="0" stop-color="#8e3844"/><stop offset="1" stop-color="#680c20"/></linearGradient><linearGradient id="linear-gradient-81" x1="903.41" y1="1229.58" x2="932.81" y2="1276.3" gradientTransform="matrix(0.92, -0.15, -0.15, -0.92, -342.05, 1538.23)" gradientUnits="userSpaceOnUse"><stop offset="0" stop-color="#6c2a32"/><stop offset="1" stop-color="#5b0919"/></linearGradient><linearGradient id="linear-gradient-82" x1="565.07" y1="772.58" x2="591.1" y2="813.95" gradientTransform="matrix(0.96, -0.07, -0.07, -0.96, -180.68, 1052.45)" gradientUnits="userSpaceOnUse"><stop offset="0" stop-color="#5b0d1b"/><stop offset="1" stop-color="#4f1216"/></linearGradient><linearGradient id="linear-gradient-83" x1="4728.33" y1="1426.33" x2="4727.75" y2="1448.07" gradientTransform="matrix(0.71, -0.71, -0.71, -0.71, -2148.85, 4670.06)" gradientUnits="userSpaceOnUse"><stop offset="0.04" stop-color="#ebb0b6"/><stop offset="0.32" stop-color="#f8b1ad"/><stop offset="0.86" stop-color="#fcd8cf"/><stop offset="1" stop-color="#fddfde"/></linearGradient><radialGradient id="radial-gradient-26" cx="4720.19" cy="1441.6" r="12.33" gradientTransform="matrix(0.71, -0.71, -0.71, -0.71, -2148.85, 4670.06)" xlink:href="#radial-gradient-5"/><linearGradient id="linear-gradient-84" x1="1410.99" y1="-602.92" x2="1407.94" y2="-597.65" gradientTransform="matrix(1, 0, 0, -1, -1118.08, -354.4)" gradientUnits="userSpaceOnUse"><stop offset="0.01" stop-color="#d4c0be"/><stop offset="0.13" stop-color="#f6c4ba"/><stop offset="0.18" stop-color="#d6c4c1"/><stop offset="0.25" stop-color="#c4bebd"/><stop offset="0.33" stop-color="#bdbcbc"/><stop offset="0.43" stop-color="#c9c1c1"/><stop offset="0.59" stop-color="#f4cacb"/><stop offset="0.73" stop-color="#fdd9cb"/><stop offset="0.97" stop-color="#bdbcbc"/></linearGradient><linearGradient id="linear-gradient-85" x1="1394.5" y1="-607.91" x2="1398.01" y2="-607.91" gradientTransform="matrix(1, 0, 0, -1, -1118.08, -354.4)" xlink:href="#linear-gradient-83"/><linearGradient id="linear-gradient-86" x1="1342.22" y1="-643.06" x2="1339.26" y2="-637.94" gradientTransform="matrix(1, 0, 0, -1, -1118.08, -354.4)" gradientUnits="userSpaceOnUse"><stop offset="0.04" stop-color="#1f1f21"/><stop offset="0.12" stop-color="#342d2f"/><stop offset="0.14" stop-color="#3c3136"/><stop offset="0.27" stop-color="#121212"/><stop offset="0.35" stop-color="#151617"/><stop offset="0.46" stop-color="#2e1f28"/><stop offset="0.59" stop-color="#473b40"/><stop offset="0.73" stop-color="#6e5d68"/><stop offset="0.77" stop-color="#736b6f"/><stop offset="1" stop-color="#493144"/></linearGradient><linearGradient id="linear-gradient-87" x1="4710.9" y1="1436.46" x2="4715.79" y2="1440.82" gradientTransform="matrix(0.71, -0.71, -0.71, -0.71, -2148.85, 4670.06)" gradientUnits="userSpaceOnUse"><stop offset="0.04" stop-color="#1f1f21"/><stop offset="0.31" stop-color="#342c30"/><stop offset="0.84" stop-color="#605059"/><stop offset="1" stop-color="#6d5c67"/></linearGradient><linearGradient id="linear-gradient-88" x1="4727.07" y1="1443.45" x2="4722.96" y2="1450.56" xlink:href="#linear-gradient-83"/><linearGradient id="linear-gradient-89" x1="1288.98" y1="-662.12" x2="1343.38" y2="-645.84" gradientTransform="matrix(1, 0, 0, -1, -1118.08, -354.4)" xlink:href="#linear-gradient-83"/><radialGradient id="radial-gradient-27" cx="4723.43" cy="1446.67" r="8.9" gradientTransform="matrix(0.71, -0.71, -0.71, -0.71, -2148.85, 4670.06)" xlink:href="#radial-gradient-5"/><linearGradient id="linear-gradient-90" x1="4723.16" y1="1423.8" x2="4726.78" y2="1429.04" xlink:href="#linear-gradient-83"/><linearGradient id="linear-gradient-91" x1="4731.66" y1="1437.76" x2="4725.6" y2="1420.79" xlink:href="#linear-gradient-83"/><radialGradient id="radial-gradient-28" cx="4713.26" cy="1430.12" r="7.75" gradientTransform="matrix(0.71, -0.71, -0.71, -0.71, -2148.85, 4670.06)" xlink:href="#radial-gradient-5"/><radialGradient id="radial-gradient-29" cx="3600.48" cy="18460.47" r="13.12" gradientTransform="matrix(1.42, -0.84, -0.09, -0.15, -3144.57, 6162.32)" gradientUnits="userSpaceOnUse"><stop offset="0" stop-color="#b31f24"/><stop offset="0.04" stop-color="#a41e22"/><stop offset="0.19" stop-color="#6e0e25"/><stop offset="0.35" stop-color="#45121d"/><stop offset="0.51" stop-color="#240f1c"/><stop offset="0.67" stop-color="#130f12"/><stop offset="0.83" stop-color="#0d0c0c"/><stop offset="1" stop-color="#010101"/></radialGradient></defs><g id="Layer_1-2" data-name="Layer 1"><polygon class="cls-1" points="225.47 373.76 141.57 324.05 169.65 278.36 253.55 328.07 225.47 373.76"/><polygon class="cls-2" points="142.21 323.82 226.07 373.55 197.82 389.84 113.97 340.12 142.21 323.82"/><polygon class="cls-3" points="62.38 384.08 145.32 433.51 124.6 469.1 40.74 419.37 62.38 384.08"/><polygon class="cls-4" points="62.38 384.08 145.32 433.51 186.22 408.71 102.36 358.97 62.38 384.08"/><polygon class="cls-5" points="124.7 478.46 40.81 428.75 40.81 419.3 124.7 469 124.7 478.46"/><polygon class="cls-6" points="186.27 408.63 102.37 358.93 114.38 339.87 198.28 389.56 186.27 408.63"/><polygon class="cls-7" points="252.32 231.76 335.26 281.17 253.82 328.36 169.96 278.62 252.32 231.76"/><polygon class="cls-8" points="252.32 231.76 335.26 281.17 368.39 228.64 284.53 178.91 252.32 231.76"/><polygon class="cls-9" points="427.52 195.35 434.81 191.96 334.1 0 326.17 2.74 427.52 195.35"/><polygon class="cls-10" points="368.12 161.06 368.12 229 335.61 281.17 253.54 328.07 225.46 372.97 197.84 389.83 185.83 408.75 145.13 432.99 124.69 469 124.69 478.46 375.03 335.54 375.03 159.2 368.12 161.06"/><polygon class="cls-11" points="284.62 112.85 284.62 181.05 368.12 229.26 368.12 161.06 427.52 195.35 326.38 2.5 225.22 78.55 284.62 112.85"/><path class="cls-12" d="M303.42,155.48c0,45.58,32.32,101.34,72,124.27,10.89,6.29,21.64,9.6,31.07,9.6,22.47,0,36.44-18.35,36.44-48,0-45.59-32.33-101.34-72-124.28-10.87-6.28-21.63-9.6-31.07-9.6C317.37,107.43,303.42,125.83,303.42,155.48Z" transform="translate(-81.57 -34.62)"/><path class="cls-13" d="M305.06,157.37c0,44.27,31.39,98.42,70,120.7,10.56,6.1,21,9.32,30.19,9.32,21.83,0,35.39-17.88,35.39-46.6,0-44.27-31.39-98.43-70-120.7-10.56-6.1.34,75.59-8.85,75.59C340,195.63,305.06,128.59,305.06,157.37Z" transform="translate(-81.57 -34.62)"/><path class="cls-14" d="M306.71,159.26c0,43,30.48,95.51,67.91,117.12,10.26,5.93,20.4,9.05,29.32,9.05,21.18,0,34.33-17.34,34.33-45.28,0-43-30.47-95.51-67.91-117.13-10.25-5.91,1.09,71.39-7.82,71.39C341.34,194.41,306.71,131.33,306.71,159.26Z" transform="translate(-81.57 -34.62)"/><path class="cls-15" d="M308.35,161.15c0,41.65,29.53,92.59,65.84,113.55,9.88,5.74,19.77,8.77,28.41,8.77,20.53,0,33.29-16.82,33.29-43.9,0-41.66-29.55-92.6-65.86-113.55-9.88-5.74,1.7,65.13-6.93,65.13C342.57,191.15,308.35,134.07,308.35,161.15Z" transform="translate(-81.57 -34.62)"/><path class="cls-16" d="M310,163.05c0,40.33,28.61,89.67,63.77,110,9.62,5.57,19.14,8.48,27.51,8.48,19.89,0,32.24-16.3,32.24-42.52,0-40.35-28.61-89.68-63.77-110-9.62-5.57.49,75.06-7.89,75.06C342,204.06,310,136.81,310,163.05Z" transform="translate(-81.57 -34.62)"/><path class="cls-17" d="M311.62,164.94c0,39,27.68,86.75,61.7,106.39,9.32,5.38,18.52,8.22,26.62,8.22,19.24,0,31.2-15.76,31.2-41.13,0-39-27.68-86.77-61.7-106.4-9.31-5.38.89,75.66-7.22,75.66C343.06,207.68,311.62,139.63,311.62,164.94Z" transform="translate(-81.57 -34.62)"/><path class="cls-18" d="M313.28,166.82c0,37.72,26.74,83.85,59.62,102.83,9,5.2,17.89,7.94,25.72,7.94,18.6,0,30.15-15.22,30.15-39.75C428.77,200.12,402,154,369.14,135c-9-5.19.55,69.05-7.29,69.05C343.27,204.06,313.28,142.3,313.28,166.82Z" transform="translate(-81.57 -34.62)"/><path class="cls-19" d="M314.91,168.71c0,36.41,25.82,80.93,57.55,99.25,8.69,5,17.27,7.67,24.84,7.67,17.94,0,29.1-14.7,29.1-38.37,0-36.41-25.82-80.94-57.55-99.25-8.69-5,1.8,59-5.75,59C345.16,197,314.91,145,314.91,168.71Z" transform="translate(-81.57 -34.62)"/><path class="cls-20" d="M316.6,170.6c0,35.09,24.89,78,55.48,95.68,8.38,4.84,16.65,7.4,23.94,7.4,17.3,0,28.05-14.12,28.05-37,0-35.1-24.9-78-55.49-95.67-8.38-4.84.49,59.36-6.79,59.36C344.46,200.37,316.6,147.79,316.6,170.6Z" transform="translate(-81.57 -34.62)"/><path class="cls-21" d="M318.21,172.49c0,33.8,24,75.11,53.39,92.11,8.06,4.66,16,7.06,23,7.06,16.65,0,27-13.64,27-35.62,0-33.78-24-75.08-53.41-92.09-8.06-4.66,1.82,56.3-5.2,56.3C346.39,200.25,318.21,150.53,318.21,172.49Z" transform="translate(-81.57 -34.62)"/><path class="cls-22" d="M319.84,174.39c0,32.48,23,72.19,51.34,88.53,7.74,4.47,15.4,6.83,22.14,6.83,16,0,26-13.12,26-34.23,0-32.48-23-72.18-51.34-88.52-7.75-4.47,2.26,51.41-4.48,51.41C347.44,198.41,319.84,153.27,319.84,174.39Z" transform="translate(-81.57 -34.62)"/><path class="cls-23" d="M321.48,176.35c0,31.17,22.1,69.27,49.26,84.94,7.44,4.31,14.79,6.57,21.25,6.57,15.37,0,24.92-12.58,24.92-32.83,0-31.17-22.11-69.27-49.26-85-7.45-4.24.53,50.3-5.86,50.3C346.35,200.3,321.48,156,321.48,176.35Z" transform="translate(-81.57 -34.62)"/><path class="cls-24" d="M312.56,138.6c-45.82-26.44-82.94-5.27-82.94,47.3s37.12,116.6,82.94,143,82.94,5.27,82.94-47.29S358.35,165.05,312.56,138.6Zm0,161c-31.72-18.36-57.42-62.64-57.42-99s25.7-51,57.42-32.67,57.42,62.64,57.42,99S344.26,318,312.56,299.66Z" transform="translate(-81.57 -34.62)"/><path class="cls-25" d="M305.3,142.82c-45.81-26.45-82.94-5.28-82.94,47.28s37.14,116.62,82.94,143,82.94,5.29,82.94-47.28S351.11,169.29,305.3,142.82Z" transform="translate(-81.57 -34.62)"/><g class="cls-26"><path class="cls-27" d="M306.54,142.12c-23.23-13.42-44.23-14.58-59.31-5.65,15-8.14,35.47-6.72,58.07,6.35,45.8,26.44,82.94,90.5,82.94,143.06,0,25.9-9,44.17-23.66,52.89,15.35-8.4,24.89-27,24.89-53.6C389.48,232.61,352.34,168.57,306.54,142.12Z" transform="translate(-81.57 -34.62)"/></g><ellipse class="cls-28" cx="305.31" cy="238" rx="67.5" ry="116.93" transform="translate(-159.96 152) rotate(-30.31)"/><ellipse class="cls-29" cx="301.86" cy="239.9" rx="64.1" ry="111.04" transform="translate(-161.26 149.61) rotate(-30.17)"/><ellipse class="cls-30" cx="305.31" cy="238" rx="55.23" ry="95.66" transform="matrix(0.86, -0.5, 0.5, 0.86, -159.96, 152)"/><ellipse class="cls-31" cx="305.31" cy="238" rx="46.02" ry="79.72" transform="translate(-159.96 152) rotate(-30.31)"/><ellipse class="cls-30" cx="301.86" cy="239.9" rx="36.62" ry="63.44" transform="translate(-161.26 149.61) rotate(-30.17)"/><ellipse class="cls-32" cx="305.31" cy="238" rx="27.62" ry="47.83" transform="translate(-159.96 152) rotate(-30.31)"/><ellipse class="cls-30" cx="305.31" cy="238" rx="18.42" ry="31.89" transform="translate(-159.96 152) rotate(-30.31)"/><ellipse class="cls-33" cx="305.31" cy="238" rx="9.21" ry="15.94" transform="translate(-159.96 152) rotate(-30.31)"/><path class="cls-34" d="M305.3,147.14c-23.8-13.74-45.12-14-59.64-3.3,14.45-9.65,35.21-9,58.23,4.26,43.77,25.25,79.16,86.39,79.16,136.57,0,22.86-7.37,39.54-19.53,48.42,13-8.67,21-25.7,21-49.43C384.48,233.53,349.08,172.39,305.3,147.14Z" transform="translate(-81.57 -34.62)"/><path class="cls-35" d="M305.3,173.1c-17.16-9.89-32.48-10-42.89-2.13,10.32-6.82,25.08-6.31,41.46,3.15,31.24,18,56.49,61.7,56.49,97.54,0,16.14-5.14,27.93-13.66,34.37,9.37-6.17,15.09-18.36,15.09-35.39C361.86,234.8,336.54,191.13,305.3,173.1Z" transform="translate(-81.57 -34.62)"/><path class="cls-36" d="M305.3,199.06c-10.52-6.08-19.93-6-26.16-1,6.19-4,15-3.64,24.73,2,18.74,10.82,33.89,37,33.89,58.53,0,9.43-2.92,16.38-7.78,20.32,5.65-3.67,9.2-11,9.2-21.34C339.19,236.09,324.05,209.87,305.3,199.06Z" transform="translate(-81.57 -34.62)"/><path class="cls-37" d="M305.3,225c-3.76-2.16-7.06-2-9.13,0,2-1,4.72-.76,7.7,1,6.24,3.61,11.3,12.35,11.3,19.51a8.75,8.75,0,0,1-2.19,6.39c2.22-1.1,3.62-3.65,3.62-7.41C316.6,237.36,311.55,228.6,305.3,225Z" transform="translate(-81.57 -34.62)"/><polygon class="cls-38" points="55.19 325.9 55.19 344.67 65.33 329.43 55.19 325.9 55.19 325.9"/><polygon class="cls-39" points="41.39 333.79 41.39 352.56 51.53 337.32 41.39 333.79 41.39 333.79"/><polygon class="cls-40" points="27.59 341.69 27.59 360.45 37.73 345.22 27.59 341.69 27.59 341.69"/><polygon class="cls-41" points="13.8 349.58 13.8 368.35 23.94 353.11 13.8 349.58 13.8 349.58"/><polygon class="cls-42" points="0 357.46 0 376.24 10.13 361 0 357.46 0 357.46"/><polygon class="cls-38" points="120.52 189.84 120.52 208.63 130.64 193.39 120.52 189.84 120.52 189.84"/><polygon class="cls-39" points="106.72 197.74 106.72 216.52 116.85 201.28 106.72 197.74 106.72 197.74"/><polygon class="cls-40" points="92.92 205.63 92.92 224.4 103.05 209.18 92.92 205.63 92.92 205.63"/><polygon class="cls-41" points="79.13 213.53 79.13 232.3 89.25 217.06 79.13 213.53 79.13 213.53"/><polygon class="cls-42" points="65.31 221.42 65.31 240.19 75.45 224.95 65.31 221.42 65.31 221.42"/><polygon class="cls-38" points="63.25 185.54 63.25 204.31 73.39 189.07 63.25 185.54 63.25 185.54"/><polygon class="cls-39" points="49.46 193.43 49.46 212.2 59.6 196.96 49.46 193.43 49.46 193.43"/><polygon class="cls-40" points="35.66 201.33 35.66 220.09 45.8 204.86 35.66 201.33 35.66 201.33"/><polygon class="cls-41" points="21.86 209.22 21.86 227.99 32 212.75 21.86 209.22 21.86 209.22"/><polygon class="cls-42" points="8.06 217.11 8.06 235.88 18.19 220.65 8.06 217.11 8.06 217.11"/><g class="cls-43"><polygon class="cls-44" points="114.38 339.87 198.01 388.85 225.19 373.24 198.63 390.1 185.83 408.75 197.12 389.83 114.38 339.87"/><polygon class="cls-45" points="169.81 278.25 253.44 327.25 321.14 289.83 254.06 328.48 231.46 363.43 252.55 328.23 169.81 278.25"/><polygon class="cls-46" points="63.06 384.62 145.05 432.11 179.38 412.69 145.67 433.34 125.55 467.42 144.16 433.08 63.06 384.62"/><polygon class="cls-47" points="335.61 281.17 368.12 229.26 368.12 161.06 367.04 228.22 335.61 281.17"/><polygon class="cls-48" points="427.06 195.42 326.08 2.53 327.25 2.3 427.99 194.83 427.06 195.42"/></g><g class="cls-49"><polygon class="cls-50" points="409.98 221.28 426.88 231.05 409.97 240.81 393.06 231.04 409.98 221.28"/><polygon class="cls-51" points="426.9 368.87 409.98 378.64 409.98 240.81 426.9 231.04 426.9 368.87"/><polygon class="cls-52" points="409.98 378.64 393.06 368.87 393.06 231.04 409.98 240.81 409.98 378.64"/></g><polygon class="cls-53" points="393.06 231.04 409.9 240.1 426.9 231.04 410.49 241.18 409.98 378.64 409.18 241.07 393.06 231.04"/><g class="cls-49"><polygon class="cls-54" points="385.73 262.81 402.64 272.59 385.73 282.35 368.83 272.57 385.73 262.81"/><polygon class="cls-55" points="402.65 382.37 385.73 392.13 385.73 282.35 402.65 272.57 402.65 382.37"/><polygon class="cls-56" points="385.73 392.13 368.83 382.37 368.83 272.57 385.73 282.35 385.73 392.13"/></g><polygon class="cls-57" points="368.83 272.57 385.65 281.64 402.65 272.57 386.24 282.71 385.73 392.13 384.93 282.6 368.83 272.57"/><g class="cls-49"><polygon class="cls-58" points="360.92 305.9 377.82 315.67 360.92 325.43 344.02 315.66 360.92 305.9"/><polygon class="cls-59" points="377.84 395.45 360.92 405.22 360.92 325.43 377.84 315.66 377.84 395.45"/><polygon class="cls-60" points="360.94 405.22 344.02 395.45 344.02 315.66 360.94 325.43 360.94 405.22"/></g><polygon class="cls-61" points="344.02 315.66 360.84 324.73 377.84 315.66 361.44 325.8 360.94 405.22 360.13 325.69 344.02 315.66"/><g class="cls-49"><polygon class="cls-62" points="336.42 353.07 353.32 362.84 336.42 372.61 319.51 362.84 336.42 353.07"/><polygon class="cls-63" points="336.42 400.59 353.32 410.36 336.42 420.13 319.51 410.36 336.42 400.59"/><polygon class="cls-64" points="353.34 410.73 336.42 420.5 336.42 372.61 353.34 362.84 353.34 410.73"/><polygon class="cls-65" points="336.43 420.5 319.51 410.73 319.51 362.84 336.43 372.61 336.43 420.5"/></g><polygon class="cls-66" points="319.51 362.84 336.33 371.91 353.34 362.84 336.94 372.98 336.43 420.5 335.63 372.85 319.51 362.84"/><g class="cls-49"><polygon class="cls-67" points="311.85 389.46 328.75 399.23 311.85 408.99 294.94 399.22 311.85 389.46"/><polygon class="cls-68" points="328.76 424.73 311.86 434.48 311.86 408.99 328.76 399.22 328.76 424.73"/><polygon class="cls-69" points="311.86 434.48 294.94 424.73 294.94 399.22 311.86 408.99 311.86 434.48"/></g><polygon class="cls-70" points="294.94 399.22 311.78 408.29 328.76 399.22 312.37 409.36 311.86 434.48 311.06 409.25 294.94 399.22"/><path class="cls-71" d="M537.89,348h-27.5v83h0v.11c0,4.42,6.16,8,13.74,8s13.76-3.59,13.76-8V431h0Z" transform="translate(-81.57 -34.62)"/><path class="cls-72" d="M537.89,348h-27.5v83h0v.11c0,4.42,6.16,8,13.74,8s13.76-3.59,13.76-8V431h0Z" transform="translate(-81.57 -34.62)"/><ellipse class="cls-73" cx="442.56" cy="313.41" rx="13.74" ry="8.01"/><path class="cls-74" d="M524.19,355.9c-7.31,0-13.27-3.33-13.7-7.53v.48c0,4.42,6.16,8,13.74,8s13.76-3.57,13.76-8v-.48C537.42,352.57,531.45,355.9,524.19,355.9Z" transform="translate(-81.57 -34.62)"/><path class="cls-75" d="M510.8,388.18H483.32V446.8h0v.1c0,4.42,6.16,8,13.74,8s13.74-3.59,13.74-8v-.1h0Z" transform="translate(-81.57 -34.62)"/><path class="cls-76" d="M510.8,388.18H483.32V446.8h0v.1c0,4.42,6.16,8,13.74,8s13.74-3.59,13.74-8v-.1h0Z" transform="translate(-81.57 -34.62)"/><ellipse class="cls-77" cx="415.49" cy="353.62" rx="13.74" ry="8.01"/><path class="cls-78" d="M497.06,396.1c-7.31,0-13.27-3.33-13.7-7.52v.48c0,4.42,6.16,8,13.74,8s13.75-3.57,13.75-8a3.84,3.84,0,0,0,0-.48C510.34,392.77,504.42,396.1,497.06,396.1Z" transform="translate(-81.57 -34.62)"/><path class="cls-79" d="M483.45,429.36H456v34.23h0v.12c0,4.42,6.14,8,13.74,8s13.74-3.57,13.74-8v-.12h0Z" transform="translate(-81.57 -34.62)"/><path class="cls-80" d="M483.45,429.36H456v34.23h0v.12c0,4.42,6.14,8,13.74,8s13.74-3.57,13.74-8v-.12h0Z" transform="translate(-81.57 -34.62)"/><ellipse class="cls-81" cx="388.13" cy="394.8" rx="13.74" ry="8.01"/><path class="cls-82" d="M469.71,437.28c-7.32,0-13.28-3.33-13.7-7.52a3.53,3.53,0,0,0,0,.46c0,4.42,6.14,8,13.74,8s13.74-3.59,13.74-8v-.46C483,434,477,437.28,469.71,437.28Z" transform="translate(-81.57 -34.62)"/><path class="cls-83" d="M537.86,345.33H510.38v3.87h0v.12c0,4.42,6.16,8,13.74,8s13.74-3.57,13.74-8v-.12h0Z" transform="translate(-81.57 -34.62)"/><path class="cls-84" d="M510.38,348.64v0Z" transform="translate(-81.57 -34.62)"/><path class="cls-85" d="M524.19,356.46c-7.58,0-13.74-3.58-13.74-8v.74h0v.12c0,4.42,6.16,8,13.74,8s13.74-3.57,13.74-8v-.12h0v-.74C537.86,352.88,531.7,356.46,524.19,356.46Z" transform="translate(-81.57 -34.62)"/><path class="cls-86" d="M537.86,348.79v-.15h0Z" transform="translate(-81.57 -34.62)"/><path class="cls-87" d="M528.33,356.93l.38-.09V346.69h-.38Z" transform="translate(-81.57 -34.62)"/><path class="cls-87" d="M530.05,356.52l.4-.1v-9.73h-.4Z" transform="translate(-81.57 -34.62)"/><path class="cls-87" d="M531.79,356l.38-.16v-9.1h-.38Z" transform="translate(-81.57 -34.62)"/><path class="cls-87" d="M526.61,357.18H527V346.73h-.38Z" transform="translate(-81.57 -34.62)"/><path class="cls-87" d="M535.23,354a3.09,3.09,0,0,0,.39-.33v-7h-.39Z" transform="translate(-81.57 -34.62)"/><path class="cls-87" d="M536.9,352.14c.14-.22.28-.45.4-.68v-4.77h-.4Z" transform="translate(-81.57 -34.62)"/><path class="cls-87" d="M533.51,355.15l.38-.21v-8.25h-.38Z" transform="translate(-81.57 -34.62)"/><path class="cls-87" d="M524.88,357.3h.38V346.7h-.38Z" transform="translate(-81.57 -34.62)"/><path class="cls-87" d="M523.15,357.28h.39v-10.6h-.39Z" transform="translate(-81.57 -34.62)"/><path class="cls-87" d="M519.7,356.89l.38.07V346.69h-.38Z" transform="translate(-81.57 -34.62)"/><path class="cls-87" d="M521.37,357.11h.39v-10.5h-.39Z" transform="translate(-81.57 -34.62)"/><path class="cls-87" d="M518,356.46l.38.12v-9.89H518Z" transform="translate(-81.57 -34.62)"/><path class="cls-87" d="M511.07,351.8a6.89,6.89,0,0,0,.38.62v-5.73h-.38Z" transform="translate(-81.57 -34.62)"/><path class="cls-87" d="M512.79,353.84l.39.31v-7.46h-.39Z" transform="translate(-81.57 -34.62)"/><path class="cls-87" d="M516.25,355.87l.39.14v-9.32h-.39Z" transform="translate(-81.57 -34.62)"/><path class="cls-87" d="M514.52,355l.39.19v-8.54h-.39Z" transform="translate(-81.57 -34.62)"/><ellipse class="cls-88" cx="442.55" cy="310.76" rx="13.74" ry="8.01"/><path class="cls-89" d="M524.19,353.17c-7.43,0-13.46-3.43-13.71-7.72v.28c0,4.42,6.16,8,13.74,8s13.74-3.57,13.74-8a1.31,1.31,0,0,0,0-.28C537.58,349.74,531.55,353.17,524.19,353.17Z" transform="translate(-81.57 -34.62)"/><ellipse class="cls-90" cx="442.55" cy="310.76" rx="10.27" ry="5.97"/><path class="cls-91" d="M524.46,339.7c5.49,0,9.89,2.51,10.25,5.65V345c0-3.3-4.6-6-10.28-6s-10.27,2.67-10.27,6v.33C514.52,342.21,519,339.7,524.46,339.7Z" transform="translate(-81.57 -34.62)"/><path class="cls-92" d="M524.19,340c5.49,0,9.89,2.51,10.24,5.65a1.82,1.82,0,0,0,0-.33c0-3.29-4.59-6-10.27-6s-10.26,2.68-10.26,6a1.82,1.82,0,0,0,0,.33C514.16,342.55,518.64,340,524.19,340Z" transform="translate(-81.57 -34.62)"/><path class="cls-93" d="M527.52,344l3.72.68c.62.11.76.57.22.79l-3.16,1.3c-.21.08-.34.22-.32.36v2.25c0,.38-.74.59-1.25.36l-3.12-1.41a1.26,1.26,0,0,0-.72,0l-3.67.71c-.62.13-1.21-.21-1-.57l1.23-2.13a.29.29,0,0,0-.11-.4h0l-2.2-1.81c-.4-.29,0-.72.64-.72h3.88a1.08,1.08,0,0,0,.65-.19l2.23-1.83a1.08,1.08,0,0,1,1.41.13l1.17,2.15A.76.76,0,0,0,527.52,344Z" transform="translate(-81.57 -34.62)"/><path class="cls-94" d="M527.52,343.58l3.72.68c.62.11.76.59.22.81l-3.16,1.28c-.21.09-.34.23-.32.38V349c0,.39-.74.6-1.25.37L523.61,348a1.36,1.36,0,0,0-.72-.07l-3.67.72c-.62.11-1.21-.23-1-.58l1.23-2.12a.31.31,0,0,0-.12-.42l-2.2-1.8c-.4-.31,0-.73.64-.72h3.88a1.07,1.07,0,0,0,.65-.18l2.23-1.83a1.06,1.06,0,0,1,1.41.14l1.17,2.13A.69.69,0,0,0,527.52,343.58Z" transform="translate(-81.57 -34.62)"/><path class="cls-95" d="M527.52,343.58l3.72.68c.62.11.76.59.22.81l-3.16,1.28c-.21.09-.34.23-.32.38V349c0,.39-.74.6-1.25.37L523.61,348a1.36,1.36,0,0,0-.72-.07l-3.67.72c-.62.11-1.21-.23-1-.58l1.23-2.12a.31.31,0,0,0-.12-.42l-2.2-1.8c-.4-.31,0-.73.64-.72h3.88a1.07,1.07,0,0,0,.65-.18l2.23-1.83a1.06,1.06,0,0,1,1.41.14l1.17,2.13A.69.69,0,0,0,527.52,343.58Z" transform="translate(-81.57 -34.62)"/><path class="cls-96" d="M510.93,385.27H483.46v3.87h0v.11c0,4.42,6.15,8,13.73,8s13.74-3.58,13.74-8v-.11h0Z" transform="translate(-81.57 -34.62)"/><path class="cls-97" d="M483.46,388.63Z" transform="translate(-81.57 -34.62)"/><path class="cls-98" d="M497.19,396.4c-7.58,0-13.73-3.59-13.73-8v.75h0v.11c0,4.42,6.15,8,13.73,8s13.74-3.58,13.74-8v-.11h0v-.75C510.93,392.81,504.79,396.4,497.19,396.4Z" transform="translate(-81.57 -34.62)"/><path class="cls-99" d="M510.93,388.75v-.12h0Z" transform="translate(-81.57 -34.62)"/><path class="cls-87" d="M501.4,396.87l.39-.09V386.63h-.39Z" transform="translate(-81.57 -34.62)"/><path class="cls-87" d="M503.14,396.46l.38-.1v-9.73h-.38Z" transform="translate(-81.57 -34.62)"/><path class="cls-87" d="M504.86,395.89l.38-.15v-9.11h-.38Z" transform="translate(-81.57 -34.62)"/><path class="cls-87" d="M499.68,397.12h.38V386.67h-.38Z" transform="translate(-81.57 -34.62)"/><path class="cls-87" d="M508.3,393.94a3.79,3.79,0,0,0,.39-.31v-7.06h-.39Z" transform="translate(-81.57 -34.62)"/><path class="cls-87" d="M510.07,392.08a4.6,4.6,0,0,0,.39-.68v-4.77h-.39Z" transform="translate(-81.57 -34.62)"/><path class="cls-87" d="M506.58,395.09l.38-.21v-8.25h-.38Z" transform="translate(-81.57 -34.62)"/><path class="cls-87" d="M498,397.23h.38V386.64H498Z" transform="translate(-81.57 -34.62)"/><path class="cls-87" d="M496.23,397.22h.38V386.63h-.38Z" transform="translate(-81.57 -34.62)"/><path class="cls-87" d="M492.77,396.82l.39.09V386.63h-.39Z" transform="translate(-81.57 -34.62)"/><path class="cls-87" d="M494.53,397.09h.4V386.63h-.4Z" transform="translate(-81.57 -34.62)"/><path class="cls-87" d="M491.05,396.4l.38.11v-9.88h-.38Z" transform="translate(-81.57 -34.62)"/><path class="cls-87" d="M484.14,391.74a4.9,4.9,0,0,0,.38.62v-5.73h-.38Z" transform="translate(-81.57 -34.62)"/><path class="cls-87" d="M485.86,393.83l.4.31v-7.51h-.4Z" transform="translate(-81.57 -34.62)"/><path class="cls-87" d="M489.32,395.81l.38.15v-9.33h-.38Z" transform="translate(-81.57 -34.62)"/><path class="cls-87" d="M487.6,395l.38.2v-8.54h-.38Z" transform="translate(-81.57 -34.62)"/><ellipse class="cls-100" cx="415.62" cy="350.71" rx="13.74" ry="8.01"/><path class="cls-101" d="M497.19,393.11c-7.43,0-13.46-3.43-13.71-7.72v.28c0,4.42,6.14,8,13.72,8s13.74-3.57,13.74-8v-.28C510.66,389.68,504.62,393.11,497.19,393.11Z" transform="translate(-81.57 -34.62)"/><path class="cls-102" d="M507.47,385.36c0,3.29-4.6,6-10.28,6s-10.27-2.68-10.27-6,4.61-6,10.27-6S507.47,382,507.47,385.36Z" transform="translate(-81.57 -34.62)"/><path class="cls-103" d="M497.54,379.71c5.48,0,9.89,2.51,10.24,5.65a1.82,1.82,0,0,0,0-.33c0-3.3-4.6-6-10.27-6s-10.28,2.67-10.28,6v.33C487.59,382.15,492.05,379.71,497.54,379.71Z" transform="translate(-81.57 -34.62)"/><path class="cls-104" d="M497.19,380c5.49,0,9.89,2.5,10.25,5.65v-.31c0-3.31-4.6-6-10.28-6s-10.27,2.68-10.27,6v.31C487.23,382.53,491.71,380,497.19,380Z" transform="translate(-81.57 -34.62)"/><path class="cls-105" d="M500.83,384.14l3.72.67c.62.11.75.59.22.8l-3.16,1.3c-.21.09-.34.23-.34.37l.07,2.24c0,.37-.73.6-1.26.37L497,388.48a1.26,1.26,0,0,0-.72,0l-3.67.7c-.62.13-1.2-.21-1-.57l1.24-2.12a.3.3,0,0,0-.1-.41h0l-2.4-1.81c-.38-.3,0-.72.63-.72h3.89a1,1,0,0,0,.65-.2l2.23-1.82a1.08,1.08,0,0,1,1.41.13l1.16,2.14A.72.72,0,0,0,500.83,384.14Z" transform="translate(-81.57 -34.62)"/><path class="cls-106" d="M500.83,383.72l3.72.68c.62.11.75.58.22.8l-3.16,1.29c-.21.08-.34.22-.34.36l.07,2.25c0,.38-.73.59-1.26.37L497,388.05a1.26,1.26,0,0,0-.72,0l-3.67.72c-.62.12-1.2-.22-1-.57l1.24-2.12a.31.31,0,0,0-.11-.43l-2.4-1.79c-.38-.31,0-.73.63-.73h3.89a1,1,0,0,0,.65-.2l2.23-1.82a1.12,1.12,0,0,1,1.41.12l1.16,2.15A.72.72,0,0,0,500.83,383.72Z" transform="translate(-81.57 -34.62)"/><path class="cls-107" d="M500.83,383.72l3.72.68c.62.11.75.58.22.8l-3.16,1.29c-.21.08-.34.22-.34.36l.07,2.25c0,.38-.73.59-1.26.37L497,388.05a1.26,1.26,0,0,0-.72,0l-3.67.72c-.62.12-1.2-.22-1-.57l1.24-2.12a.31.31,0,0,0-.11-.43l-2.4-1.79c-.38-.31,0-.73.63-.73h3.89a1,1,0,0,0,.65-.2l2.23-1.82a1.12,1.12,0,0,1,1.41.12l1.16,2.15A.72.72,0,0,0,500.83,383.72Z" transform="translate(-81.57 -34.62)"/><path class="cls-108" d="M483.31,426.52H455.84v3.87h0v.16c0,4.42,6.14,8,13.73,8s13.74-3.59,13.74-8v-.11h0Z" transform="translate(-81.57 -34.62)"/><path class="cls-109" d="M455.84,429.88Z" transform="translate(-81.57 -34.62)"/><path class="cls-110" d="M469.57,437.61c-7.59,0-13.73-3.59-13.73-8v.75h0v.2c0,4.42,6.14,8,13.73,8s13.74-3.59,13.74-8v-.11h0v-.75C483.31,434.06,477.16,437.61,469.57,437.61Z" transform="translate(-81.57 -34.62)"/><path class="cls-111" d="M483.31,430v-.12h0Z" transform="translate(-81.57 -34.62)"/><path class="cls-87" d="M473.78,438.12l.39-.09V427.88h-.39Z" transform="translate(-81.57 -34.62)"/><path class="cls-87" d="M475.51,437.71l.38-.1v-9.73h-.38Z" transform="translate(-81.57 -34.62)"/><path class="cls-87" d="M477.24,437.14l.38-.15v-9.11h-.38Z" transform="translate(-81.57 -34.62)"/><path class="cls-87" d="M472.05,438.37h.4V427.92h-.4Z" transform="translate(-81.57 -34.62)"/><path class="cls-87" d="M480.68,435.19l.4-.31v-7.06h-.4Z" transform="translate(-81.57 -34.62)"/><path class="cls-87" d="M482.42,433.37a5,5,0,0,0,.38-.68v-4.77h-.38Z" transform="translate(-81.57 -34.62)"/><path class="cls-87" d="M479,436.34l.38-.21v-8.25H479Z" transform="translate(-81.57 -34.62)"/><path class="cls-87" d="M470.33,438.48h.38V427.89h-.38Z" transform="translate(-81.57 -34.62)"/><path class="cls-87" d="M468.61,438.48H469v-10.6h-.38Z" transform="translate(-81.57 -34.62)"/><path class="cls-87" d="M465.15,438.08l.39.08V427.88h-.39Z" transform="translate(-81.57 -34.62)"/><path class="cls-87" d="M466.88,438.34h.38v-10.5h-.38Z" transform="translate(-81.57 -34.62)"/><path class="cls-87" d="M463.47,437.61l.38.11v-9.88h-.38Z" transform="translate(-81.57 -34.62)"/><path class="cls-87" d="M456.52,433a6.49,6.49,0,0,0,.39.62v-5.73h-.39Z" transform="translate(-81.57 -34.62)"/><path class="cls-87" d="M458.25,435a3.89,3.89,0,0,0,.39.32v-7.46h-.39Z" transform="translate(-81.57 -34.62)"/><path class="cls-87" d="M461.7,437.06l.38.15v-9.33h-.38Z" transform="translate(-81.57 -34.62)"/><path class="cls-87" d="M460,436.2l.38.19v-8.54H460Z" transform="translate(-81.57 -34.62)"/><ellipse class="cls-112" cx="387.99" cy="391.96" rx="13.74" ry="8.01"/><path class="cls-113" d="M469.57,434.36c-7.42,0-13.46-3.43-13.72-7.72v.28c0,4.42,6.15,8,13.73,8s13.74-3.57,13.74-8v-.28C483,430.93,477,434.36,469.57,434.36Z" transform="translate(-81.57 -34.62)"/><ellipse class="cls-114" cx="387.99" cy="391.96" rx="10.27" ry="5.97"/><path class="cls-115" d="M469.92,420.89c5.48,0,9.89,2.51,10.24,5.65a1.82,1.82,0,0,0,0-.33c0-3.3-4.61-6-10.27-6s-10.28,2.67-10.28,6v.33C460,423.4,464.43,420.89,469.92,420.89Z" transform="translate(-81.57 -34.62)"/><path class="cls-116" d="M469.57,421.24c5.49,0,9.88,2.5,10.25,5.65v-.31c0-3.3-4.6-6-10.28-6s-10.27,2.69-10.27,6v.31C459.62,423.74,464.09,421.24,469.57,421.24Z" transform="translate(-81.57 -34.62)"/><path class="cls-117" d="M473.11,425.21l3.7.68c.62.11.76.58.23.8L473.87,428a.44.44,0,0,0-.32.38v2.23c0,.38-.72.59-1.24.37l-3.12-1.41a1.26,1.26,0,0,0-.72,0l-3.68.72c-.62.11-1.2-.23-1-.58l1.24-2.12a.34.34,0,0,0-.12-.43l-2.33-1.79c-.39-.31,0-.73.63-.72h3.89a1.11,1.11,0,0,0,.64-.18l2.24-1.84a1.11,1.11,0,0,1,1.41.13l1.16,2.14A.68.68,0,0,0,473.11,425.21Z" transform="translate(-81.57 -34.62)"/><path class="cls-118" d="M473.11,424.8l3.7.66c.62.12.76.6.23.81l-3.17,1.28a.45.45,0,0,0-.32.39v2.24c0,.37-.72.59-1.24.37l-3.12-1.41a1.36,1.36,0,0,0-.72-.07l-3.68.72c-.62.11-1.2-.23-1-.58l1.24-2.12a.31.31,0,0,0-.12-.41l-2.28-1.78c-.38-.3,0-.74.64-.72h3.88a.94.94,0,0,0,.65-.18l2.23-1.83a1.08,1.08,0,0,1,1.42.13l1.15,2.15A.71.71,0,0,0,473.11,424.8Z" transform="translate(-81.57 -34.62)"/><path class="cls-119" d="M473.11,424.8l3.7.66c.62.12.76.6.23.81l-3.17,1.28a.45.45,0,0,0-.32.39v2.24c0,.37-.72.59-1.24.37l-3.12-1.41a1.36,1.36,0,0,0-.72-.07l-3.68.72c-.62.11-1.2-.23-1-.58l1.24-2.12a.31.31,0,0,0-.12-.41l-2.28-1.78c-.38-.3,0-.74.64-.72h3.88a.94.94,0,0,0,.65-.18l2.23-1.83a1.08,1.08,0,0,1,1.42.13l1.15,2.15A.71.71,0,0,0,473.11,424.8Z" transform="translate(-81.57 -34.62)"/><g class="cls-120"><path class="cls-121" d="M304.22,237.6a.24.24,0,0,0,0,.12s-1.76,5-1,13.82c.58,6.25,1.27,19.67,1.82,31.52s1,22.14,1,22.14a.2.2,0,0,0,0,.11,1.14,1.14,0,0,0,.68.71,22.8,22.8,0,0,0,4.08.87,10.13,10.13,0,0,0,4,.15,1.11,1.11,0,0,0,.55-.89v-.1s-1.42-10.64-2.94-22.85-3.22-26-3.79-32.23c-.8-8.76-3.33-13.36-3.33-13.36a.28.28,0,0,0-.18-.2Z" transform="translate(-81.57 -34.62)"/><path class="cls-122" d="M304.21,237.68a31.81,31.81,0,0,0-.71,3.6h0a44.13,44.13,0,0,0-.12,9.68c.53,5.91,1.23,18.93,1.79,30.47v1c.52,10.85.9,20.13.93,20.41a.2.2,0,0,0,0,.11,1.27,1.27,0,0,0,.62.71,15.93,15.93,0,0,0,3.65,1h.08a7.85,7.85,0,0,1,.95.16,6.39,6.39,0,0,0,2.82,0,1.24,1.24,0,0,0,.47-.52h0a.71.71,0,0,0,0-.29.11.11,0,0,0,0-.08c0-.11-1.41-10.45-2.83-22.26s-3.07-25.15-3.61-31.07a2.19,2.19,0,0,0-.07-.67,42.34,42.34,0,0,0-2.11-9.89v-.18a22.46,22.46,0,0,0-.93-2.21.21.21,0,0,0-.17-.19l-.82.09A.26.26,0,0,0,304.21,237.68Z" transform="translate(-81.57 -34.62)"/><path class="cls-123" d="M304.24,237.65s-.35,1.5-.64,3.48h0a43.06,43.06,0,0,0-.11,9.29c.51,5.65,1.21,18.2,1.78,29.44v1c.51,10.28.89,19.13.93,19.77v.11a1.07,1.07,0,0,0,.57.71,9.23,9.23,0,0,0,3.3,1.16h.07a8.74,8.74,0,0,0,.89.17,5.61,5.61,0,0,0,2.7,0,1.05,1.05,0,0,0,.42-.51h0a.61.61,0,0,0,0-.27v-.09c0-.21-1.3-10.23-2.7-21.64s-2.93-24.32-3.46-30v-.67a41.45,41.45,0,0,0-2-9.47.87.87,0,0,0-.07-.17c-.45-1.23-.86-2.14-.86-2.14a.28.28,0,0,0-.16-.19h-.76A.18.18,0,0,0,304.24,237.65Z" transform="translate(-81.57 -34.62)"/><path class="cls-124" d="M304.25,237.62s-.28,1.6-.53,3.35V241a42.13,42.13,0,0,0-.07,8.91c.48,5.27,1.17,17.47,1.76,28.4v.94c.49,9.73.88,18.16.95,19a.24.24,0,0,0,0,.12,1,1,0,0,0,.49.69c.35.58,1.71.92,3,1.31h0a7.54,7.54,0,0,0,.82.2,5,5,0,0,0,2.54,0,1.09,1.09,0,0,0,.41-.49h0a1.22,1.22,0,0,0,0-.27h0c0-.33-1.25-10-2.57-21s-2.83-23.5-3.29-28.91v-.64a40.6,40.6,0,0,0-1.87-9.12.46.46,0,0,0-.07-.16c-.39-1.1-.79-2.06-.79-2.06a.35.35,0,0,0-.14-.2h-.71A.13.13,0,0,0,304.25,237.62Z" transform="translate(-81.57 -34.62)"/><path class="cls-125" d="M304.28,237.58s-.24,1.71-.45,3.25h0a42,42,0,0,0,0,8.54c.45,4.95,1.16,16.74,1.75,27.36v.9c.49,9.17.88,17.16,1,18.36a.2.2,0,0,0,0,.11,1.12,1.12,0,0,0,.44.7,3.61,3.61,0,0,0,2.61,1.41h.08a6.21,6.21,0,0,0,.74.2,4.23,4.23,0,0,0,2.39,0,1,1,0,0,0,.38-.48h0a.57.57,0,0,0,0-.26h0c0-.44-1.18-9.88-2.44-20.46s-2.66-22.67-3.12-27.78v-.62a40.32,40.32,0,0,0-1.74-8.77,1.11,1.11,0,0,0-.07-.16c-.35-1-.75-2-.75-2a.24.24,0,0,0-.13-.2l-.62-.13S304.28,237.55,304.28,237.58Z" transform="translate(-81.57 -34.62)"/><path class="cls-126" d="M304.31,237.55s-.2,1.8-.38,3.13h0a41.3,41.3,0,0,0,0,8.17c.41,4.61,1.11,16,1.72,26.31V276c.47,8.6.85,16.17,1,17.59a.24.24,0,0,0,0,.12,1.26,1.26,0,0,0,.39.69,2.94,2.94,0,0,0,2.27,1.61h0a4.15,4.15,0,0,0,.68.22,3.54,3.54,0,0,0,2.23,0,.8.8,0,0,0,.37-.46h0a1,1,0,0,0,0-.24h0c0-.54-1.15-9.65-2.33-19.86s-2.52-21.83-3-26.67v-.6a38.19,38.19,0,0,0-1.62-8.47.27.27,0,0,0-.07-.14c-.3-.82-.68-1.91-.68-1.91a.31.31,0,0,0-.11-.2l-.57-.19A.1.1,0,0,0,304.31,237.55Z" transform="translate(-81.57 -34.62)"/><path class="cls-127" d="M304.32,237.51s-.12,1.91-.28,3h0a40.76,40.76,0,0,0,0,7.81c.4,4.24,1.1,15.25,1.71,25.26v.84c.47,8.05.85,15.19,1,16.94a.24.24,0,0,0,0,.12,1.14,1.14,0,0,0,.32.67,2.51,2.51,0,0,0,1.94,1.77h0a3.07,3.07,0,0,0,.62.24,3.26,3.26,0,0,0,2.07-.07.74.74,0,0,0,.34-.45h0a.45.45,0,0,0,0-.23h0c0-.65-1.08-9.43-2.2-19.25s-2.37-21-2.82-25.56v-.56a41,41,0,0,0-1.5-8.08.54.54,0,0,0-.07-.13c-.26-.69-.62-1.83-.62-1.83s0-.19-.12-.2l-.48-.27Z" transform="translate(-81.57 -34.62)"/><path class="cls-128" d="M304.35,237.48s-.08,2-.21,2.83h0a40.09,40.09,0,0,0,0,7.43c.35,3.94,1.06,14.51,1.69,24.22v.8c.47,7.49.85,14.21,1,16.2v.11a1.4,1.4,0,0,0,.27.68,2.32,2.32,0,0,0,1.58,1.91h0a1.72,1.72,0,0,0,.55.25,2.7,2.7,0,0,0,1.92-.07.66.66,0,0,0,.32-.44h0a.74.74,0,0,0,0-.21h0c0-.76-1-9.25-2.07-18.66-1.08-9.61-2.23-20.18-2.63-24.45v-.54a40.61,40.61,0,0,0-1.41-7.73.24.24,0,0,0,0-.12c-.2-.55-.57-1.77-.57-1.77s0-.17-.08-.18l-.43-.36Z" transform="translate(-81.57 -34.62)"/><path class="cls-129" d="M304.37,237.46s0,2.1-.12,2.82h0a39.64,39.64,0,0,0,0,7.06c.33,3.6,1.05,13.77,1.68,23.18v.76c.44,6.93.82,13.23,1,15.53a.29.29,0,0,0,0,.13,1.41,1.41,0,0,0,.23.66c.19,1.2.73,2,1.22,2.07h0a1.41,1.41,0,0,0,.5.26,2.38,2.38,0,0,0,1.76-.08.61.61,0,0,0,.3-.43v-.28c-.08-.86-1-9-2-18.05-1-9.25-2.07-19.36-2.44-23.35a4.34,4.34,0,0,0,0-.51,42.66,42.66,0,0,0-1.24-7.37.27.27,0,0,0-.09-.12c-.14-.41-.49-1.69-.49-1.69a.66.66,0,0,0-.09-.19l-.35-.42S304.37,237.44,304.37,237.46Z" transform="translate(-81.57 -34.62)"/><path class="cls-130" d="M304.39,237.41v2.66h0a39.22,39.22,0,0,0,.09,6.68c.31,3.29,1,13.05,1.66,22.14v.74c.44,6.36.82,12.23,1,14.8v.12a3.87,3.87,0,0,0,.17.67c.33,1.28.55,2.14.87,2.2h0a.79.79,0,0,0,.42.28,2.09,2.09,0,0,0,1.61-.08.62.62,0,0,0,.29-.43h0V287h0c-.09-1-.94-8.84-1.85-17.45-.94-8.87-1.94-18.53-2.28-22.23v-.5a42.21,42.21,0,0,0-1.13-7.06l-.07-.1c-.1-.28-.45-1.62-.45-1.62a.6.6,0,0,0,0-.19l-.28-.5Z" transform="translate(-81.57 -34.62)"/><path class="cls-131" d="M304.42,237.38s.07,2.32,0,2.53h0a36.05,36.05,0,0,0,.11,6.32c.27,3,1,12.31,1.66,21.09v.7c.42,5.81.82,11.29,1,14.12v.13a6.36,6.36,0,0,0,.12.64,7.42,7.42,0,0,0,.53,2.36h0a.78.78,0,0,0,.37.3,1.7,1.7,0,0,0,1.41-.11.51.51,0,0,0,.26-.4h0v-.17h0c-.1-1.09-.88-8.64-1.73-16.86-.86-8.47-1.79-17.7-2.12-21.18v-.46a49,49,0,0,0-1-6.68.34.34,0,0,0-.08-.09c0-.13-.38-1.54-.38-1.54v-.2l-.22-.57Z" transform="translate(-81.57 -34.62)"/><path class="cls-132" d="M304.44,237.36l.12,2.4h0a38,38,0,0,0,.14,5.94c.26,2.69,1,12,1.68,20.72l1.33,16.68h0a.56.56,0,0,0,.3.32,1.4,1.4,0,0,0,1.3-.12.49.49,0,0,0,.24-.39h0s-.78-7.88-1.63-16.42-1.73-17.77-2-20.45a56.69,56.69,0,0,0-.89-6.33.08.08,0,0,0-.07-.08Z" transform="translate(-81.57 -34.62)"/></g><path class="cls-133" d="M168.92,318l-5.37-.72a2.71,2.71,0,0,1-.35-5.31l30.05-8.22Z" transform="translate(-81.57 -34.62)"/><path class="cls-134" d="M169.13,317.43l-5.37-.72a2.71,2.71,0,0,1-2.34-3,3.63,3.63,0,0,1,.1-.45,2.72,2.72,0,0,0,1.09,3.68,2.8,2.8,0,0,0,.94.3l5.37.72,24.33-14.25-1.28.36Z" transform="translate(-81.57 -34.62)"/><path class="cls-135" d="M305.3,238.4a.37.37,0,0,1-.13.28s-3.43,4.66-11.82,9.52c-12,7-13.91,7.42-13.91,7.42-.33.18-.11-.23-.61-.5a3.9,3.9,0,0,1-1.75-3c0-.55-.51-.55-.2-.74,0,0,1.42-1.41,13.39-8.3,8.47-4.87,14.28-5.44,14.28-5.44a.34.34,0,0,1,.31,0A1,1,0,0,1,305.3,238.4Z" transform="translate(-81.57 -34.62)"/><path class="cls-136" d="M279.88,254.51c0,1.12-.78,1.57-1.75,1a3.81,3.81,0,0,1-1.75-3c0-1.12.77-1.57,1.75-1A3.88,3.88,0,0,1,279.88,254.51Z" transform="translate(-81.57 -34.62)"/><path class="cls-137" d="M279.58,254.56a1.19,1.19,0,0,1-.48,1.07L168,321c-.31.17-.11-.22-.58-.48a3.71,3.71,0,0,1-1.67-2.83c0-.53-.49-.53-.19-.7l111.14-65.42a1.22,1.22,0,0,1,1.17.13A3.73,3.73,0,0,1,279.58,254.56Z" transform="translate(-81.57 -34.62)"/><path class="cls-138" d="M168.45,320c0,1.06-.74,1.5-1.68,1a3.73,3.73,0,0,1-1.68-2.89c0-1.06.77-1.5,1.68-1A3.67,3.67,0,0,1,168.45,320Z" transform="translate(-81.57 -34.62)"/><path class="cls-139" d="M168,316l24.85-14.32-19.39-1.6a8.39,8.39,0,0,0-7.33,13.49Z" transform="translate(-81.57 -34.62)"/><path class="cls-140" d="M168.41,315.9l24.86-14.32L173.88,300a8.39,8.39,0,0,0-7.33,13.49Z" transform="translate(-81.57 -34.62)"/><path class="cls-141" d="M166.9,313.64a8.38,8.38,0,0,1,7.33-13.48l18.82,1.54.2-.12L173.86,300a8.39,8.39,0,0,0-7.33,13.49l1.87,2.41.17-.09Z" transform="translate(-81.57 -34.62)"/><path class="cls-142" d="M169.6,318.9l.6,2.19A7.06,7.06,0,0,0,182.91,323l11.54-18.12Z" transform="translate(-81.57 -34.62)"/><path class="cls-143" d="M170,318.59l.61,2.19a7.07,7.07,0,0,0,12.71,1.89l11.56-18.18Z" transform="translate(-81.57 -34.62)"/><path class="cls-144" d="M183.48,322.3a7.06,7.06,0,0,1-12.71-1.89l-.55-2-.27.16.61,2.19a7.07,7.07,0,0,0,12.71,1.89l11.56-18.18h0Z" transform="translate(-81.57 -34.62)"/><path class="cls-145" d="M298.24,240.59c.65,1.12-7.16,6.95-17.44,13s-19.18,10.1-19.85,9,7.15-7,17.44-13S297.6,239.46,298.24,240.59Z" transform="translate(-81.57 -34.62)"/></g></svg>