<svg xmlns="http://www.w3.org/2000/svg" xmlns:xlink="http://www.w3.org/1999/xlink" viewBox="0 0 614.38 619.55"><defs><style>.cls-1{fill:none;}.cls-2{isolation:isolate;}.cls-3{fill:#e5e5e5;}.cls-4{fill:#3b415a;}.cls-5{fill:#52567d;}.cls-6,.cls-8{fill:#252b3d;}.cls-7{fill:#fff;}.cls-22,.cls-8{opacity:0.1;}.cls-9{fill:#f37a8c;}.cls-10{fill:#d5253a;}.cls-11,.cls-25{fill:#6c759c;}.cls-12{fill:#ab1f23;}.cls-13{fill:#b12024;}.cls-14{fill:#ee2928;}.cls-15{fill:#fab38f;}.cls-16{fill:#f48472;}.cls-17{fill:#d7615e;}.cls-18{clip-path:url(#clip-path);}.cls-19{fill:#c7c6c5;}.cls-20{fill:#e3e3e3;}.cls-21{fill:#f04e69;}.cls-23{fill:#9f9f9f;}.cls-24{fill:#878787;}.cls-25{opacity:0.3;mix-blend-mode:screen;}</style><clipPath id="clip-path" transform="translate(-5.61 -1.17)"><polygon class="cls-1" points="543.36 153.26 520.9 166.23 483.31 144.53 484.13 112.69 504.16 105.6 544.4 126.75 543.36 153.26"/></clipPath></defs><g class="cls-2"><g id="Layer_4" data-name="Layer 4"><path class="cls-3" d="M123.64,484.64a86.49,86.49,0,0,1-69.1-21.23c-15.69-14.18-25.34-33.32-1.23-53.16,57.72-47.48,53.14-85.84,26.52-113s-94.3-82.07-52.64-130.78,153.33,4.52,170.16-51.9S244.41,11.44,297.87,2.69c44.06-7.21,104.69,10.76,116.71,65.79,11.91,54.49-56.13,51.45,8.31,139.38,37.89,51.7-25.05,162.48-82,139.74s-126.55,12.18-129,76.39C210.31,466.32,158.64,480.14,123.64,484.64Z" transform="translate(-5.61 -1.17)"/><path class="cls-3" d="M453.37,168.61a24.11,24.11,0,0,0-9.08-17c-5.36-4.19-13.17-6.69-23,0-19.56,13.47,11.25,52.62,23.41,45.53C454.74,191.32,454.3,179.54,453.37,168.61Z" transform="translate(-5.61 -1.17)"/><path class="cls-3" d="M149.12,109.94a24.16,24.16,0,0,0,11.77-15.32c1.59-6.61.64-14.76-9.54-20.88C131,61.5,109.15,102.88,116.28,115,121.45,123.83,139.55,115.3,149.12,109.94Z" transform="translate(-5.61 -1.17)"/><path class="cls-3" d="M6,299a15,15,0,0,0,6.38,10.2c3.51,2.37,8.47,3.59,14.26-1,11.57-9.22-5.7-29.61-14.34-28.09C6,281.22,4.91,292.28,6,299Z" transform="translate(-5.61 -1.17)"/><ellipse class="cls-3" cx="233.65" cy="466.37" rx="100.6" ry="35.96" transform="translate(-178.55 138.43) rotate(-24.6)"/><path class="cls-4" d="M296.75,457.76l-76.81,44.35a10.64,10.64,0,0,1-10.61,0L171.7,480.38a10.59,10.59,0,0,1,0-18.38l76.67-44.29a10.62,10.62,0,0,1,10.59,0l37.77,21.68a10.43,10.43,0,0,1,3.65,3.44A10.62,10.62,0,0,1,296.75,457.76Z" transform="translate(-5.61 -1.17)"/><path class="cls-5" d="M300.37,442.81a10.55,10.55,0,0,1-3.62,3.42l-76.81,44.35a10.59,10.59,0,0,1-10.61,0L171.7,468.86a10.7,10.7,0,0,1-3.63-3.43,10.67,10.67,0,0,1,3.62-3.43l76.67-44.29a10.62,10.62,0,0,1,10.59,0l37.77,21.68A10.43,10.43,0,0,1,300.37,442.81Z" transform="translate(-5.61 -1.17)"/><polygon class="cls-6" points="243.63 371.7 243.63 439.92 224.3 451.19 224.16 468.53 219.77 471.08 219.76 471.08 204.6 462.68 204.6 394.73 243.63 371.7"/><polygon class="cls-4" points="258.8 380.11 258.8 448.33 224.16 468.53 219.77 471.08 219.76 471.09 219.76 402.63 243.63 388.86 258.8 380.11"/><path class="cls-6" d="M377.51,22.16V287a12.86,12.86,0,0,1-6.43,11.14l-327,188.8a12.86,12.86,0,0,1-19.29-11.14V211.43a12.88,12.88,0,0,1,5.95-10.84l.47-.29L49.08,190,358.22,11A12.85,12.85,0,0,1,377.51,22.16Z" transform="translate(-5.61 -1.17)"/><path class="cls-6" d="M31.44,487l22.7,11.26-5.23-14.17S38.6,487.36,31.44,487Z" transform="translate(-5.61 -1.17)"/><path class="cls-4" d="M401.85,23.09V36.63L377.73,50.36,73.67,223.43,49.86,213.31l-22.1-9.8A12.79,12.79,0,0,1,31,200.62L49.3,190,365.54,6.67a16.33,16.33,0,0,1,16.18-.1l14.76,8.3,1.56.88A8.86,8.86,0,0,1,401.85,23.09Z" transform="translate(-5.61 -1.17)"/><path class="cls-5" d="M401.63,23.06v273.8a9,9,0,0,1-4.48,7.77L62.36,497.92a9,9,0,0,1-13.46-7.77V216.82a9,9,0,0,1,4.48-7.76l.48-.28L388.16,15.29a9,9,0,0,1,13.47,7.77Z" transform="translate(-5.61 -1.17)"/><path class="cls-7" d="M388.89,36.39V294.56a3.21,3.21,0,0,1-1.61,2.79L71.61,479.6a3.13,3.13,0,0,1-1.6.45,3.25,3.25,0,0,1-3.24-3.24V219.09a3.23,3.23,0,0,1,1.61-2.79L384.05,33.6a3.13,3.13,0,0,1,1.6-.45A3.25,3.25,0,0,1,388.89,36.39Z" transform="translate(-5.61 -1.17)"/><path class="cls-8" d="M388.89,36.39V48.64L66.77,235v-15.9a3.23,3.23,0,0,1,1.61-2.79L384.05,33.6a3.13,3.13,0,0,1,1.6-.45A3.25,3.25,0,0,1,388.89,36.39Z" transform="translate(-5.61 -1.17)"/><path class="cls-9" d="M79.08,220.31C79,222.46,77.6,224.2,76,224.2s-2.75-1.74-2.64-3.89,1.48-3.89,3.06-3.89S79.19,218.16,79.08,220.31Z" transform="translate(-5.61 -1.17)"/><path class="cls-4" d="M88.15,215.72c-.12,2.15-1.48,3.9-3.05,3.9s-2.76-1.75-2.65-3.9,1.49-3.89,3.06-3.89S88.26,213.57,88.15,215.72Z" transform="translate(-5.61 -1.17)"/><path class="cls-10" d="M96.21,211.25c-.12,2.15-1.48,3.9-3.06,3.9s-2.75-1.75-2.64-3.9,1.48-3.89,3.06-3.89S96.32,209.1,96.21,211.25Z" transform="translate(-5.61 -1.17)"/><path class="cls-5" d="M388.89,264.19v30.47a3.23,3.23,0,0,1-1.61,2.79L71.61,479.7a3.13,3.13,0,0,1-1.6.45,3.25,3.25,0,0,1-3.24-3.24V450.17Z" transform="translate(-5.61 -1.17)"/><path class="cls-11" d="M254.94,367c-.34,6.44-4.43,11.65-9.14,11.65s-8.25-5.21-7.9-11.65,4.43-11.65,9.14-11.65S255.28,360.61,254.94,367Z" transform="translate(-5.61 -1.17)"/><path class="cls-8" d="M129,239.05a3.5,3.5,0,0,1,1.74-3l166.09-96.12a3.48,3.48,0,0,1,2.85-.3l.22.08L317.59,146a3.48,3.48,0,0,1,1,.35h0a3.45,3.45,0,0,1,1.82,3v1.8l.33,106.87v4.34l.08,24.74a3.5,3.5,0,0,1-1.75,3L152.43,386.46a3.44,3.44,0,0,1-3.11.19h0l-17.89-6.37-.45-.16a3.46,3.46,0,0,1-2.12-3.22Zm18.2,133.32Z" transform="translate(-5.61 -1.17)"/><path class="cls-12" d="M318.82,131.21l.38,125.63a3.49,3.49,0,0,1-1.75,3l-145.4,83.95-8.15,4.71L166,362.82l-17.9-6.37-.45-.16a3.47,3.47,0,0,1-2.12-3.22l.14-137.85a3.57,3.57,0,0,1,.37-1.55,3.49,3.49,0,0,1,1.38-1.47l166.09-96.12a3.42,3.42,0,0,1,2.84-.3l.22.08,18.71,6.71Z" transform="translate(-5.61 -1.17)"/><path class="cls-13" d="M163.9,348.54,166,362.82l-17.9-6.37-.45-.16a3.47,3.47,0,0,1-2.12-3.22l.14-137.85a3.57,3.57,0,0,1,.37-1.55l23.75,8.12,2.24,122Z" transform="translate(-5.61 -1.17)"/><path class="cls-14" d="M337.53,263.37a3.47,3.47,0,0,1-1.74,3L169.13,362.63a3.49,3.49,0,0,1-5.24-3V341.86L164,222.28v-.53a3.47,3.47,0,0,1,1.74-3l.25-.14,165.84-96a3.51,3.51,0,0,1,5.25,3v1.8l.32,106.87,0,4.34Z" transform="translate(-5.61 -1.17)"/><path class="cls-12" d="M230,241.81l-66.14,108v-7.9l62.62-102.21a2.06,2.06,0,0,1,3.52,2.16Z" transform="translate(-5.61 -1.17)"/><path class="cls-12" d="M337.46,238.63,279.2,219.81a2.07,2.07,0,0,1,1.27-3.93l57,18.41Z" transform="translate(-5.61 -1.17)"/><path class="cls-12" d="M337.12,127.42l-77,125.69L164,222.28v-.53a3.47,3.47,0,0,1,1.74-3l.25-.14,92.27,29.6,77-125.63a3.44,3.44,0,0,1,1.85,3.06Z" transform="translate(-5.61 -1.17)"/><ellipse class="cls-3" cx="535.99" cy="395.08" rx="18.8" ry="41.44" transform="translate(-4.19 790.9) rotate(-72.99)"/><path class="cls-10" d="M507.22,143c0,.12,0,.25-.06.38s-.07.43-.12.65c-2.37,11.67-19.42,31.14-19.42,31.14l-8.75-5.11c8.31-11.15,17.5-34.27,17.5-34.27l5.77,3.83Z" transform="translate(-5.61 -1.17)"/><path class="cls-12" d="M514,129.1a36.09,36.09,0,0,1-6.38,13.74l-.43.58-.34.45c-.76,1-1.51,1.9-2.21,2.68-1.2-1.5-2.52-2.9-3.75-4.38a44.89,44.89,0,0,1-2.63-3.79c-.58-.85-1.18-1.73-1.86-2.55C502,123.54,510,97.21,510,97.21S516.37,117.14,514,129.1Z" transform="translate(-5.61 -1.17)"/><path class="cls-13" d="M507.59,142.84l-.43.58c0,.21-.07.43-.12.65l-.22-.2a14.6,14.6,0,0,0-4.75-3,.62.62,0,0,1-.38-.81.61.61,0,0,1,.45-.4.64.64,0,0,1,.36,0A16,16,0,0,1,507.59,142.84Z" transform="translate(-5.61 -1.17)"/><path class="cls-14" d="M565.37,380.62a4,4,0,0,1,2.62,3.2,32.48,32.48,0,0,1,.27,5.6c-.17,5.47-.24,7.7-.24,7.7s-1.65,2.89-6.4,3.67l-1.39.2s-10.75,6.46-15.77,7c-6.55.64-13.24-2.37-7.82-8.74,5.11-6,12.63-8.42,14.86-13.24.25-.57,1.93-1.76,2.36-2.21C557.49,380,560.28,379,565.37,380.62Z" transform="translate(-5.61 -1.17)"/><path class="cls-7" d="M554.4,392.19a.61.61,0,0,1-.56-.37,4.8,4.8,0,0,0-2.38-2.41,3.75,3.75,0,0,0-3.08.81.62.62,0,0,1-.86-.09.6.6,0,0,1,.08-.85c.08-.07,2.12-1.74,4.25-1a6,6,0,0,1,3.11,3.09.61.61,0,0,1-.32.8A.69.69,0,0,1,554.4,392.19Z" transform="translate(-5.61 -1.17)"/><path class="cls-7" d="M552.26,393.71a.6.6,0,0,1-.56-.37,4.73,4.73,0,0,0-2.38-2.4c-1.47-.5-3.06.79-3.08.8a.61.61,0,0,1-.86-.08.62.62,0,0,1,.08-.86c.09-.07,2.12-1.73,4.25-1a6,6,0,0,1,3.12,3.08.61.61,0,0,1-.33.8A.49.49,0,0,1,552.26,393.71Z" transform="translate(-5.61 -1.17)"/><path class="cls-7" d="M549.83,395.08a.61.61,0,0,1-.56-.37,4.8,4.8,0,0,0-2.38-2.41,3.73,3.73,0,0,0-3.08.81A.61.61,0,0,1,543,393a.61.61,0,0,1,.08-.86c.08-.07,2.11-1.74,4.24-1a6,6,0,0,1,3.12,3.09.61.61,0,0,1-.32.8A.69.69,0,0,1,549.83,395.08Z" transform="translate(-5.61 -1.17)"/><path class="cls-15" d="M564.68,370l.56,13.52a7.88,7.88,0,0,1-8.71,1.18l-1.32-14.61S560.94,368,564.68,370Z" transform="translate(-5.61 -1.17)"/><path class="cls-5" d="M567.82,295.27c-4.28-22.29-.89-57.52-.57-73.75L531.39,227l-1.06,22.15c0-.08,2.66.18,2.68.1a8.54,8.54,0,0,1,3.37-.61c2.55.1,3.33,4.33,3.67,5.54,1.25,16,1.32,35.59,2.76,47.8,2.84,24.17,11.88,77.82,11.88,77.82,4.36.95,6.91.71,11.29-.92C566,378.91,570.51,309.31,567.82,295.27Z" transform="translate(-5.61 -1.17)"/><path class="cls-6" d="M563.8,378.18h0a.69.69,0,0,1-.68-.71c0-2.47.8-60.65,1.26-65s-1-20.54-2.41-29.26c-1-6.18-.29-35.25-.26-36.49a.69.69,0,0,1,.69-.67h0a.69.69,0,0,1,.68.71c0,.3-.75,30.17.24,36.22,1.44,8.81,2.9,25.07,2.42,29.63-.45,4.32-1.25,64.3-1.26,64.91A.69.69,0,0,1,563.8,378.18Z" transform="translate(-5.61 -1.17)"/><path class="cls-11" d="M553.58,375.44s7.65.82,13.44-.71a11.54,11.54,0,0,1-.33,6s-6.91,1.8-12.46.44A9.59,9.59,0,0,1,553.58,375.44Z" transform="translate(-5.61 -1.17)"/><path class="cls-14" d="M534.11,370.9a4,4,0,0,1,2.62,3.2,32.42,32.42,0,0,1,.27,5.6c-.17,5.47-.24,7.7-.24,7.7s-1.65,2.89-6.4,3.67l-1.39.2s-10.75,6.46-15.77,7c-6.55.65-13.24-2.36-7.82-8.73,5.11-6,12.63-8.43,14.86-13.25a17.07,17.07,0,0,1,2.36-2.2C526.23,370.29,529,369.22,534.11,370.9Z" transform="translate(-5.61 -1.17)"/><path class="cls-7" d="M523.14,382.47a.61.61,0,0,1-.56-.37,4.8,4.8,0,0,0-2.38-2.41c-1.48-.5-3.06.79-3.08.8a.61.61,0,0,1-.86-.08.62.62,0,0,1,.08-.86c.09-.07,2.12-1.73,4.25-1a6,6,0,0,1,3.11,3.08.62.62,0,0,1-.32.81A.69.69,0,0,1,523.14,382.47Z" transform="translate(-5.61 -1.17)"/><path class="cls-7" d="M521,384a.62.62,0,0,1-.56-.37,4.74,4.74,0,0,0-2.38-2.41c-1.47-.49-3.06.8-3.08.81a.62.62,0,0,1-.86-.08.63.63,0,0,1,.08-.86c.09-.07,2.12-1.73,4.25-1a6,6,0,0,1,3.12,3.09.61.61,0,0,1-.32.8A.53.53,0,0,1,521,384Z" transform="translate(-5.61 -1.17)"/><path class="cls-7" d="M518.57,385.36A.61.61,0,0,1,518,385a4.8,4.8,0,0,0-2.38-2.41,3.7,3.7,0,0,0-3.08.81.62.62,0,0,1-.86-.09.59.59,0,0,1,.08-.85c.08-.08,2.11-1.74,4.24-1a6,6,0,0,1,3.12,3.09.61.61,0,0,1-.32.8A.69.69,0,0,1,518.57,385.36Z" transform="translate(-5.61 -1.17)"/><path class="cls-15" d="M533.42,360.26l.56,13.52a7.87,7.87,0,0,1-8.71,1.17L524,360.35S529.68,358.31,533.42,360.26Z" transform="translate(-5.61 -1.17)"/><path class="cls-5" d="M508.72,245.93C510,261.85,512.55,279.84,514,292c2.85,24.17,9.45,78.1,9.45,78.1,4.36,1,6.91.72,11.3-.91,0,0,4.76-69.84,3.18-84.05-2.58-23.33-2.58-46.82-2.26-63L507,218Z" transform="translate(-5.61 -1.17)"/><path class="cls-6" d="M531,245.45a.7.7,0,0,1,.69.71c-.14,9.39-.22,23.17.42,27.07,1.44,8.8,2.9,25.06,2.42,29.63-.45,4.32-1.25,64.3-1.25,64.91a.7.7,0,0,1-.7.68h0a.69.69,0,0,1-.68-.7c0-2.48.8-60.65,1.26-65s-1-20.53-2.41-29.26c-.66-4-.58-17.88-.44-27.31a.71.71,0,0,1,.7-.69Z" transform="translate(-5.61 -1.17)"/><path class="cls-11" d="M522.32,365.72s7.65.81,13.44-.71a11.55,11.55,0,0,1-.33,6s-6.91,1.79-12.46.44A9.59,9.59,0,0,1,522.32,365.72Z" transform="translate(-5.61 -1.17)"/><path class="cls-14" d="M510,97.21c8.84-1.84,23.78-3,31.74-.2,11.21,3.9,16.59,7.63,24.22,13.07.26,4.41,1.55,25.55,1.61,30.22,0,1.13,0,2.24,0,3.33,0,.46,0,.91,0,1.36-.21,14.27,1.56,46.06,1.88,53.74.58,13.81,1.08,21,.75,21.86-1.92,5-14.43,9.58-33,8.5s-27.67-1.49-29.7-8.32-1-12.05,1.15-32.36C510.39,171.29,510.32,112.07,510,97.21Z" transform="translate(-5.61 -1.17)"/><path class="cls-10" d="M518.35,186.9a.71.71,0,0,1-.86-.41.72.72,0,0,1,.38-.94c.32-.13,31.41-13.37,33.17-29.7a.72.72,0,1,1,1.43.15c-.78,7.25-6.77,14.66-17.8,22a111.06,111.06,0,0,1-16.24,8.86Z" transform="translate(-5.61 -1.17)"/><path class="cls-10" d="M522.94,189.68a.72.72,0,0,1-.4-1.39,74.94,74.94,0,0,0,19.08-9.43.72.72,0,0,1,1,.17.73.73,0,0,1-.17,1,76.12,76.12,0,0,1-19.5,9.63Z" transform="translate(-5.61 -1.17)"/><path class="cls-6" d="M517.12,60.05s-4.2-9.19,4.35-14.45,17.08-1.84,16.85,1.47,1.9,1,8.43,5.28,7.72,10.93,5.16,16C551.91,68.33,538.25,52.22,517.12,60.05Z" transform="translate(-5.61 -1.17)"/><path class="cls-15" d="M530.55,92.71l.67,6.4.23,2.17c7.14,1.79,12.64-3.07,12.64-3.07l.64-9.89a1.81,1.81,0,0,0-.41-.23C540.47,86.41,530.55,92.71,530.55,92.71Z" transform="translate(-5.61 -1.17)"/><path class="cls-16" d="M530.55,92.71l.67,6.4a24.74,24.74,0,0,0,13.1-11C540.47,86.41,530.55,92.71,530.55,92.71Z" transform="translate(-5.61 -1.17)"/><path class="cls-16" d="M519.16,71.74S516,68,514,71.33s1.62,12.85,6.88,10.21Z" transform="translate(-5.61 -1.17)"/><path class="cls-17" d="M519.5,78.62a.47.47,0,0,1-.46-.3,7,7,0,0,0-4.18-4,.47.47,0,0,1-.29-.58.45.45,0,0,1,.57-.29A7.8,7.8,0,0,1,519.9,78a.45.45,0,0,1-.28.58Z" transform="translate(-5.61 -1.17)"/><path class="cls-17" d="M516.3,77.29a.45.45,0,0,1-.25-.05.48.48,0,0,1-.17-.63,4.35,4.35,0,0,1,1.64-1.47.46.46,0,0,1,.61.2.45.45,0,0,1-.19.61,3.31,3.31,0,0,0-1.26,1.11A.45.45,0,0,1,516.3,77.29Z" transform="translate(-5.61 -1.17)"/><path class="cls-15" d="M517,76.65c.07.95.17,1.84.29,2.64,1.19,7.26,7.53,22,20.32,14.53a30.19,30.19,0,0,0,7.12-5.5,22.19,22.19,0,0,0,3.32-4.73,13.09,13.09,0,0,0,.74-2.13l.12-.38a1.72,1.72,0,0,1,.07-.21,57.28,57.28,0,0,0,1.5-6.19c.47-2.5.78-4.83,1-6.74a10,10,0,0,0-4.06-9.06c-7.74-5.67-16.7-5-22.72-3.41a10,10,0,0,0-7.49,9c-.14,2-.26,4.36-.3,6.67C516.85,73,516.88,74.94,517,76.65Z" transform="translate(-5.61 -1.17)"/><path class="cls-16" d="M543.71,80.86a5.45,5.45,0,0,0,4.34,2.73c.27-.7.51-1.41.74-2.13C547.33,81.72,545.1,81.88,543.71,80.86Z" transform="translate(-5.61 -1.17)"/><path class="cls-6" d="M544.73,88.32a22.19,22.19,0,0,0,3.32-4.73,13.09,13.09,0,0,0,.74-2.13l.12-.38a7,7,0,0,0-1.64.38S543.84,85.36,544.73,88.32Z" transform="translate(-5.61 -1.17)"/><path class="cls-7" d="M524.68,85.43c.63,1.84,2.33,5.16,6.54,4.6s5-3.89,5.11-6.13Z" transform="translate(-5.61 -1.17)"/><path class="cls-6" d="M534,74.53c0,1,.62,1.82,1.27,1.79s1.14-.89,1.08-1.92-.63-1.82-1.28-1.79S533.89,73.51,534,74.53Z" transform="translate(-5.61 -1.17)"/><path class="cls-6" d="M521.11,74.94c0,1,.63,1.82,1.28,1.79s1.13-.89,1.07-1.92S522.84,73,522.19,73,521.05,73.92,521.11,74.94Z" transform="translate(-5.61 -1.17)"/><path class="cls-6" d="M541.35,69.17s-4.23-2.39-7.88-1.37l.08,2s5.12.27,7.52,1.66A3.35,3.35,0,0,0,541.35,69.17Z" transform="translate(-5.61 -1.17)"/><path class="cls-6" d="M517.57,70.09s4-2.78,7.72-2.12l.11,2s-5.07.76-7.33,2.37A3.32,3.32,0,0,1,517.57,70.09Z" transform="translate(-5.61 -1.17)"/><path class="cls-16" d="M528.66,82.47a5,5,0,0,0,1.64-.41.47.47,0,0,0,.23-.61.46.46,0,0,0-.61-.22,2.74,2.74,0,0,1-1.82.24.49.49,0,0,1-.24-.41,69.59,69.59,0,0,1,0-7,.45.45,0,0,0-.43-.48.47.47,0,0,0-.48.44,67.92,67.92,0,0,0,0,7.16,1.36,1.36,0,0,0,.7,1.08A1.92,1.92,0,0,0,528.66,82.47Z" transform="translate(-5.61 -1.17)"/><path class="cls-15" d="M548,71.68s3.46-3.53,5.22,0-1.8,12.39-7.92,9.83Z" transform="translate(-5.61 -1.17)"/><path class="cls-16" d="M547.09,78.52a.48.48,0,0,0,.48-.27A7,7,0,0,1,552,74.6a.47.47,0,0,0,.34-.55.47.47,0,0,0-.55-.34,7.86,7.86,0,0,0-5.1,4.18.44.44,0,0,0,.24.59Z" transform="translate(-5.61 -1.17)"/><path class="cls-16" d="M550.37,77.44a.48.48,0,0,0,.26,0,.46.46,0,0,0,.21-.61,4,4,0,0,0-1.51-1.59.46.46,0,0,0-.63.15.47.47,0,0,0,.15.63,3.14,3.14,0,0,1,1.17,1.2A.45.45,0,0,0,550.37,77.44Z" transform="translate(-5.61 -1.17)"/><path class="cls-6" d="M551.21,70.11s-2.66-.47-4,1.47a9.81,9.81,0,0,0-1.75,4.17l-2.08,0s1.64-3.83,1.17-6.13-2.24-2.86-1.79-5.31-.73-5.55-3.27-6S526,57.2,522.11,59,519,64.77,518,66.26s-1.11,5-1.11,5h0a5.12,5.12,0,0,1-1-2.9,40.16,40.16,0,0,1,.31-5.69c.55-4.69,7.33-10.28,17.67-10.28s16.51,4.88,17.84,9.93S551.21,70.11,551.21,70.11Z" transform="translate(-5.61 -1.17)"/><path class="cls-7" d="M531.16,74.93a4.76,4.76,0,1,0,4.5-5A4.78,4.78,0,0,0,531.16,74.93Zm15.38-2.14h-.3a15.88,15.88,0,0,0-1.88.19c-.5.07-.93.15-1.23.22a9.67,9.67,0,0,0-1.67.44,5.82,5.82,0,0,1,.09.73,5.66,5.66,0,1,1-.41-1.81c.72-.15,2.33-.48,3.43-.65l.81-.11a14.54,14.54,0,0,1,1.82-.14.36.36,0,0,0,0,.09Z" transform="translate(-5.61 -1.17)"/><path class="cls-7" d="M520.83,81.15a5.64,5.64,0,1,0-6-5.33A5.65,5.65,0,0,0,520.83,81.15Zm-.57-10.39a4.76,4.76,0,1,1-4.5,5A4.75,4.75,0,0,1,520.26,70.76Z" transform="translate(-5.61 -1.17)"/><path class="cls-7" d="M525.77,74a3.54,3.54,0,0,1,2.35-1.56,3.2,3.2,0,0,1,2.39,1.3l.71-.53a4.09,4.09,0,0,0-3.15-1.65,4.43,4.43,0,0,0-3,2Z" transform="translate(-5.61 -1.17)"/><polygon class="cls-11" points="469.78 143.35 515.29 169.63 545.64 152.11 500.4 125.67 469.78 143.35"/><g class="cls-18"><polygon class="cls-6" points="477.7 143.35 500.39 130.25 537.75 152.09 515.29 165.06 477.7 143.35"/><path class="cls-3" d="M505.13,131.88,505.06,154a.62.62,0,0,0,.31.54L531,169.39l1.44.83-.38,2.52,3.16-1.13.08,0a.63.63,0,0,0,.37-.57l0-24.32a.64.64,0,0,0-.07-.27.55.55,0,0,0-.24-.26l-29.3-17a.63.63,0,0,0-.5-.05l0,0-3.3,1.18Z" transform="translate(-5.61 -1.17)"/><path class="cls-19" d="M532.46,170.22l-.38,2.52,3.16-1.13.08,0a.63.63,0,0,0,.37-.57l0-24.32a.64.64,0,0,0-.07-.27l-4.19,1.43L531,169.39Z" transform="translate(-5.61 -1.17)"/><path class="cls-7" d="M501.83,155.2a.59.59,0,0,0,.31.53l29.39,17a.61.61,0,0,0,.93-.53V169l0-21.09v-.1a.6.6,0,0,0-.3-.53l0,0-29.25-16.93a.59.59,0,0,0-.6,0,.6.6,0,0,0-.33.54v.31l-.06,18.86v5.13Z" transform="translate(-5.61 -1.17)"/><path class="cls-3" d="M520.79,151.39l11.67,19V169l-11.05-18a.37.37,0,0,0-.5-.12A.36.36,0,0,0,520.79,151.39Z" transform="translate(-5.61 -1.17)"/><path class="cls-3" d="M501.84,150.83l10.28-3.32a.36.36,0,1,0-.23-.69l-10.05,3.25Z" transform="translate(-5.61 -1.17)"/><path class="cls-3" d="M501.9,131.21l13.58,22.18L532.43,148v-.1a.6.6,0,0,0-.3-.53l0,0-16.27,5.22-13.58-22.16a.6.6,0,0,0-.33.54Z" transform="translate(-5.61 -1.17)"/><path class="cls-3" d="M491.81,136.44l-.07,22.17a.61.61,0,0,0,.31.53L517.7,174l1.44.83-.38,2.52,3.16-1.12.08,0a.61.61,0,0,0,.37-.57l0-24.32a.65.65,0,0,0-.31-.53l-29.3-16.95a.6.6,0,0,0-.5-.06l0,0-3.3,1.18Z" transform="translate(-5.61 -1.17)"/><path class="cls-19" d="M519.14,174.78l-.38,2.52,3.16-1.12.08,0a.61.61,0,0,0,.37-.57l0-24.32a.54.54,0,0,0-.07-.27l-4.19,1.43L517.7,174Z" transform="translate(-5.61 -1.17)"/><path class="cls-7" d="M488.51,159.76a.61.61,0,0,0,.31.53l29.39,17a.62.62,0,0,0,.93-.54V173.6l0-21.09v-.09a.62.62,0,0,0-.3-.54l0,0-29.25-16.93a.59.59,0,0,0-.6,0,.61.61,0,0,0-.33.54v.32l-.06,18.85v5.13Z" transform="translate(-5.61 -1.17)"/><path class="cls-3" d="M507.47,156,519.14,175v-1.4l-11.05-18a.36.36,0,1,0-.62.38Z" transform="translate(-5.61 -1.17)"/><path class="cls-3" d="M488.52,155.39l10.28-3.32a.35.35,0,0,0,.23-.45.36.36,0,0,0-.46-.24l-10.05,3.25Z" transform="translate(-5.61 -1.17)"/><path class="cls-3" d="M488.58,135.78,502.16,158l16.95-5.44v-.09a.62.62,0,0,0-.3-.54l0,0-16.27,5.22-13.58-22.16a.61.61,0,0,0-.33.54Z" transform="translate(-5.61 -1.17)"/></g><polygon class="cls-4" points="469.78 143.35 469.78 195.91 515.29 222.19 515.29 169.63 469.78 143.35"/><path class="cls-5" d="M487.64,184l-.14,6.56,16.14,9,.11-5.19-7.1-12.44c-1.34-2.38-1.52-3.46-1.51-4.32,0-1.22.71-1.6,2-.88a7,7,0,0,1,2.92,4l5.19-.33a18.79,18.79,0,0,0-8.6-10.66c-4.77-2.67-8.2-1.47-8.31,3.29,0,2.48.42,5,3.28,9.92l2.81,4.86Z" transform="translate(-5.61 -1.17)"/><polygon class="cls-6" points="515.29 222.19 545.64 204.31 545.64 152.11 515.29 169.63 515.29 222.19"/><path class="cls-12" d="M568.8,167c-4.25-.6-9-2.34-13.22-3.26.1-.51.2-1.07.29-1.65,0-.21.07-.42.11-.63l.12-.82c2.45-16.51,4-54.59,4-54.59a25.05,25.05,0,0,1,13.32,19.18C574.58,134.53,570.85,156.58,568.8,167Z" transform="translate(-5.61 -1.17)"/><path class="cls-12" d="M568.8,167c-1.11,10.63-28.15,39-37.73,45.45l-2.74-11.59c19.32-25.7,25.87-36.36,27.32-38.82l.33-.58,6.09,2.64Z" transform="translate(-5.61 -1.17)"/><path class="cls-13" d="M562.15,164a.76.76,0,0,1-.08.11l-.14.11a.73.73,0,0,1-.79,0,16.14,16.14,0,0,0-5.27-2.12l-.22,0,.33-.58.12-.82a17.79,17.79,0,0,1,5.83,2.34A.73.73,0,0,1,562.15,164Z" transform="translate(-5.61 -1.17)"/><path class="cls-15" d="M528.32,200.84s-6.41.73-6.86,3.14v13.7s4.34,1.82,9.61-5.25A13.86,13.86,0,0,0,528.32,200.84Z" transform="translate(-5.61 -1.17)"/><path class="cls-15" d="M521.5,201.23s-8.61,1.13-7.69,3.38c.32.77,7,.74,7,.74l-.11,1.07s-7.17.59-8.07,2.56,7.71.82,7.71.82l-.15,1.36s-5.69.38-6.63,2,7.28,1.15,7.28,1.15l-.11,1.06s-3.33.66-4.48,2.22,4.54.84,6.85-.06a2.37,2.37,0,0,0,1.53-3.42s1.11-2.86-.28-4.46c0,0,1.39-2.29-.16-3.87C524.14,205.82,525.73,201,521.5,201.23Z" transform="translate(-5.61 -1.17)"/><path class="cls-15" d="M528.32,200.84a21.16,21.16,0,0,1-1.57-3.32c-.6-1.7-2.06-3.93-2.62-2.71-.68,1.52-.18,3.13,0,4.59.32,3.35-.86,2.78-.61,3.86S528.52,202.87,528.32,200.84Z" transform="translate(-5.61 -1.17)"/><path class="cls-15" d="M474.69,168.23s8.59,1.23,7.64,3.47c-.33.77-7,.66-7,.66l.1,1.07s7.17.68,8,2.65-7.71.73-7.71.73l.12,1.36s5.7.46,6.62,2.12-7.3,1.07-7.3,1.07l.1,1.06s3.32.7,4.46,2.27-4.56.79-6.85-.14a2.38,2.38,0,0,1-1.5-3.44s-1.08-2.87.34-4.45c0,0-1.37-2.31.2-3.87C472,172.79,470.46,168,474.69,168.23Z" transform="translate(-5.61 -1.17)"/><path class="cls-15" d="M472.8,169.21c.06,1,1.33,1.68,2.58,2v-8.85c-.64.26-1.33,2-1.57,3.34A20.61,20.61,0,0,1,472.8,169.21Z" transform="translate(-5.61 -1.17)"/><ellipse class="cls-20" cx="99.18" cy="608.23" rx="51.14" ry="11.33"/><path class="cls-6" d="M119.08,351.43c-3.6.43-9.86,1.65-13.49,1.67-12,.06-14.64,1.9-26.53,0-3.45-.55-6.75,1-10.61-1.89,1.77-4.64,5.76-34.36,7-38.89,2.2-7.91,5-18.21,5-18.21s36.49-3.62,38.27,3.58.84,19.2-.37,27.21C118.12,326.66,118.64,350.13,119.08,351.43Z" transform="translate(-5.61 -1.17)"/><path class="cls-12" d="M75.09,590a4,4,0,0,0-2.64,3.23,31.93,31.93,0,0,0-.27,5.64c.17,5.53.24,7.78.24,7.78s1.66,2.91,6.45,3.7l1.41.2s10.84,6.52,15.91,7c6.6.65,13.36-2.39,7.89-8.81-5.16-6.07-12.75-8.51-15-13.37-.26-.57-2-1.77-2.39-2.22C83,589.39,80.23,588.32,75.09,590Z" transform="translate(-5.61 -1.17)"/><path class="cls-7" d="M86.16,601.68a.61.61,0,0,0,.56-.37,4.83,4.83,0,0,1,2.41-2.43c1.49-.5,3.09.8,3.1.81a.62.62,0,1,0,.79-1c-.09-.07-2.14-1.75-4.28-1a6,6,0,0,0-3.15,3.11.62.62,0,0,0,.33.81A.64.64,0,0,0,86.16,601.68Z" transform="translate(-5.61 -1.17)"/><path class="cls-7" d="M88.31,603.22a.62.62,0,0,0,.57-.37,4.79,4.79,0,0,1,2.4-2.43c1.49-.5,3.09.8,3.11.81a.62.62,0,0,0,.87-.08.63.63,0,0,0-.08-.87c-.09-.07-2.14-1.75-4.29-1a6,6,0,0,0-3.14,3.11.62.62,0,0,0,.32.81A.69.69,0,0,0,88.31,603.22Z" transform="translate(-5.61 -1.17)"/><path class="cls-7" d="M90.77,604.6a.62.62,0,0,0,.57-.38,4.82,4.82,0,0,1,2.4-2.43c1.49-.5,3.09.8,3.11.82a.61.61,0,0,0,.78-1c-.08-.07-2.13-1.75-4.28-1a6,6,0,0,0-3.14,3.12.62.62,0,0,0,.32.81A.69.69,0,0,0,90.77,604.6Z" transform="translate(-5.61 -1.17)"/><path class="cls-12" d="M113.2,590.2a4,4,0,0,0-2.64,3.22,32.06,32.06,0,0,0-.27,5.65l.24,7.84s1.66,2.84,6.45,3.63l1.84.3s10.41,6.42,15.48,6.92c6.6.65,13.35-2.38,7.89-8.81-5.16-6.07-12.75-8.5-15-13.37a17.5,17.5,0,0,0-2.39-2.22C121.15,589.58,118.34,588.5,113.2,590.2Z" transform="translate(-5.61 -1.17)"/><path class="cls-7" d="M124.52,602a.6.6,0,0,0,.56-.38,4.91,4.91,0,0,1,2.4-2.43c1.49-.49,3.09.8,3.11.82a.62.62,0,1,0,.79-1c-.09-.07-2.14-1.75-4.29-1a6,6,0,0,0-3.14,3.12.62.62,0,0,0,.32.81A.74.74,0,0,0,124.52,602Z" transform="translate(-5.61 -1.17)"/><path class="cls-7" d="M126.67,603.53a.62.62,0,0,0,.57-.38,4.86,4.86,0,0,1,2.4-2.43c1.49-.49,3.09.8,3.11.82a.61.61,0,0,0,.78-.95c-.08-.07-2.13-1.75-4.28-1a6,6,0,0,0-3.14,3.12.62.62,0,0,0,.32.81A.69.69,0,0,0,126.67,603.53Z" transform="translate(-5.61 -1.17)"/><path class="cls-7" d="M129.13,604.9a.62.62,0,0,0,.57-.37,4.78,4.78,0,0,1,2.4-2.43c1.49-.5,3.09.8,3.1.81a.62.62,0,0,0,.87-.08A.61.61,0,0,0,136,602c-.08-.07-2.13-1.75-4.28-1a6.07,6.07,0,0,0-3.15,3.12.61.61,0,0,0,.33.8A.52.52,0,0,0,129.13,604.9Z" transform="translate(-5.61 -1.17)"/><path class="cls-15" d="M73.24,431.83,125,430.29c3.25,18.24,10.8,59,8.31,76.38-4,28-10.43,86.88-10.43,86.88-4.41,1-5.46,1.06-9.88-.59,0,0-4-64,.57-83.71,2.79-11.88-5.87-34.06-9.34-51.61,0,0-1.07-3.65-2.91-3.65-1.19,0-1.89,1.75-2.23,3-1.27,16.14-2.91,35.5-4.36,47.82-2.87,24.38-11,89.74-11,89.74-4.4,1-4.57,1.35-9-.29,0,0-3.34-74.63-.62-88.8C78.42,483,73.57,448.21,73.24,431.83Z" transform="translate(-5.61 -1.17)"/><path class="cls-6" d="M133.75,495.75c-5.3,1.73-11.18,1.82-17.42.86l-1.21-.2c-1.09-.19-2.2-.41-3.3-.66-1.06-11.37-5.12-25.5-7.61-38.11,0,0-1.08-3.65-2.91-3.65-1.19,0-1.89,1.75-2.23,3-1,12.61-2.2,27.15-3.38,38.79-6.76,1.57-12.81,1.89-18.18.9l-1.15-.22c-.86-.2-1.71-.42-2.54-.68,2.38-21.76-.3-49.42-.58-63.92L125,430.3C127.66,445.37,133.28,475.81,133.75,495.75Z" transform="translate(-5.61 -1.17)"/><path class="cls-11" d="M116.33,496.61l-1.21-.2c-1.94-15.25-7.64-39.88-7.7-40.16a.58.58,0,0,1,.43-.71.57.57,0,0,1,.69.44C108.83,457.16,114.45,481.46,116.33,496.61Z" transform="translate(-5.61 -1.17)"/><path class="cls-11" d="M78.42,491.68c-.19,1.15-.38,2.42-.91,5l-1.15-.22c.52-2.48.72-3.78.91-4.94,1-6.11.16-40.08.16-40.42a.59.59,0,0,1,.57-.6.58.58,0,0,1,.59.58C78.63,452.44,79.44,485.46,78.42,491.68Z" transform="translate(-5.61 -1.17)"/><path class="cls-11" d="M74.11,491.54c-1.62,1-1.62,4.7-1.29,6.63,0,0,14.14,3.64,23,.42.92-.74,1.44-4,.39-6.51C96.25,492.08,82.71,493.81,74.11,491.54Z" transform="translate(-5.61 -1.17)"/><path class="cls-11" d="M111.36,491.85c-.86,1.33-.67,5.37.5,6.53,0,0,13.24,3.43,22.14.21.93-.74,1.37-4.51-.41-7C133.59,491.54,120,494.12,111.36,491.85Z" transform="translate(-5.61 -1.17)"/><path class="cls-12" d="M116.87,367.37c2.56,12.81,13.76,22.49,13.76,22.49l9.59-8.54a8.43,8.43,0,0,1-2-2.23c-.24-.35-.49-.74-.74-1.15-6.71-10.93-17.21-42.59-17.21-42.59S114.3,354.57,116.87,367.37Z" transform="translate(-5.61 -1.17)"/><path class="cls-12" d="M129.46,387.92s2.16,6.06,10.2,5.12,27.78-24.16,27.78-24.16c-2.69,0-4.93-.67-8.55-1.95,0,0-9,8.85-17.83,11A17,17,0,0,0,129.46,387.92Z" transform="translate(-5.61 -1.17)"/><path class="cls-13" d="M133,384.85a.71.71,0,0,0,.28.06.68.68,0,0,0,.62-.4,16.07,16.07,0,0,1,4.3-5.42c-.24-.35-.49-.74-.74-1.15a17.39,17.39,0,0,0-4.79,6A.68.68,0,0,0,133,384.85Z" transform="translate(-5.61 -1.17)"/><polygon class="cls-6" points="173.43 344.17 171.88 343.5 172.23 344.5 173.43 344.17"/><path class="cls-6" d="M165.16,346.36l-10.48,17.48c-.67,1.12-.12,2.4,1,2.28l3.88-.42,6.67-.71a1.84,1.84,0,0,0,1.3-.91l10.37-17.2c.67-1.1.14-2.38-1-2.29l-10.44.86A1.83,1.83,0,0,0,165.16,346.36Z" transform="translate(-5.61 -1.17)"/><polygon class="cls-6" points="149.44 364.85 150.68 365.6 151.24 365 149.64 364.09 149.44 364.85"/><path class="cls-5" d="M179.32,347.51l-10.44,17.32a1.81,1.81,0,0,1-1.31.91L157,366.92c-1.12.12-1.67-1.16-1-2.29L166.57,347a1.78,1.78,0,0,1,1.34-.92l10.46-.9C179.47,345.12,180,346.39,179.32,347.51Z" transform="translate(-5.61 -1.17)"/><path class="cls-6" d="M167,356.27c-.77,1.27-.89,2.6-.27,3s1.75-.36,2.51-1.63.89-2.6.27-3S167.78,355,167,356.27Z" transform="translate(-5.61 -1.17)"/><path class="cls-15" d="M176.58,353.5h0c.06-.18,1-2.79.12-3.27-.35-.18-.85.3-1.35,1h0a20.38,20.38,0,0,0-1.66,2.89h0l0,0,.08-.19a.06.06,0,0,1,0,0c0-.09.08-.21.13-.34l0-.05c.5-1.32,1.43-4.11.67-4.8-.55-.5-1.79,1.32-2.81,3.08-.8,1.38-1.46,2.73-1.54,2.9,0,0,.07-.23.15-.49,0,0,0,0,0,0,.33-1.14,1-3.76,0-4.38-.74-.48-1.87,1.92-2.66,3.94h0c-.53,1.37-.91,2.56-.91,2.56s.36-3.64-.76-3.53-1.82,6.24-3.2,8-4.08,4-4,5.91c.06,1,1.82,3.41,6.41,3.19a5.93,5.93,0,0,0,4.24-2.12c3.22-3.86,6.62-10.81,7-14.26" transform="translate(-5.61 -1.17)"/><path class="cls-16" d="M171.81,358.12A12.74,12.74,0,0,0,174,355c.5-1.34,1.33-3.79,1.33-3.79h0a20.38,20.38,0,0,0-1.66,2.89h0A26.4,26.4,0,0,1,171.81,358.12Z" transform="translate(-5.61 -1.17)"/><path class="cls-16" d="M169,358.09a38,38,0,0,0,2.15-3.79,8.93,8.93,0,0,0,.63-2.49c-.8,1.38-1.46,2.73-1.54,2.9C170.22,354.71,169.26,357.41,169,358.09Z" transform="translate(-5.61 -1.17)"/><path class="cls-16" d="M166.42,358.73s1.59-3.34,1.31-5c-.53,1.37-.91,2.56-.91,2.56" transform="translate(-5.61 -1.17)"/><path class="cls-14" d="M74.35,442.37c10.92,8.39,54.06-1.53,50.88-12.7-2-7-9-37.26-8-46.64s8.19-15.09,3.58-25.63a26.25,26.25,0,0,1-.9-18.18c1.33-4.69-.34-6.77-5.06-7.45a33.81,33.81,0,0,0-8.82.05c-6.66,1-14.24,2.22-20.7,3.64a69,69,0,0,0-11.84,3.44C62.09,344,77.77,368,80.19,382.1S68.54,437.9,74.35,442.37Z" transform="translate(-5.61 -1.17)"/><path class="cls-10" d="M98,383.57c12.16,0,18.67-3.49,19-3.66a.68.68,0,1,0-.65-1.19h0c-.09,0-9.28,4.93-26,3a.68.68,0,0,0-.75.6.69.69,0,0,0,.6.75A70.9,70.9,0,0,0,98,383.57Z" transform="translate(-5.61 -1.17)"/><path class="cls-10" d="M100.88,359a.64.64,0,0,0,.2,0c7.6-2.31,9.32-7.52,9.39-7.74a.68.68,0,0,0-.44-.85.67.67,0,0,0-.85.44c-.07.2-1.62,4.76-8.49,6.86a.67.67,0,0,0,.19,1.32Z" transform="translate(-5.61 -1.17)"/><path class="cls-10" d="M92.25,430.35c16.7,0,26.15-9.19,26.54-9.58a.68.68,0,0,0,0-1,.67.67,0,0,0-1,0c-.09.09-9.47,9.19-25.59,9.19a.68.68,0,1,0,0,1.35Z" transform="translate(-5.61 -1.17)"/><path class="cls-10" d="M94.18,427.22h0c6.22-.15,14.07-5.18,14.4-5.39a.68.68,0,0,0-.74-1.14c-.07.05-7.85,5-13.7,5.18a.68.68,0,0,0,0,1.35Z" transform="translate(-5.61 -1.17)"/><path class="cls-6" d="M90.55,323.1s-9-3.29-10.73-12.47S78.55,288,91.09,284s24.11-.16,26.9,11.41C118,295.4,108.38,318.43,90.55,323.1Z" transform="translate(-5.61 -1.17)"/><path class="cls-15" d="M104.61,327.49l-.68,6.35-.38,3.72C96.3,340.68,88.88,336,89,335.35a61.23,61.23,0,0,0,1.59-12.25,2.1,2.1,0,0,1,.42-.22C94.79,321.22,104.61,327.49,104.61,327.49Z" transform="translate(-5.61 -1.17)"/><path class="cls-16" d="M104.61,327.49l-.68,6.35a24.52,24.52,0,0,1-13-11C94.79,321.22,104.61,327.49,104.61,327.49Z" transform="translate(-5.61 -1.17)"/><path class="cls-16" d="M114.56,307.45s2.82-3.35,4.61-.34-1.46,11.39-6.12,9Z" transform="translate(-5.61 -1.17)"/><path class="cls-7" d="M115.92,314.77a.61.61,0,1,0,.5-.7A.61.61,0,0,0,115.92,314.77Z" transform="translate(-5.61 -1.17)"/><path class="cls-17" d="M114.25,313.56a.4.4,0,0,0,.4-.27,6.26,6.26,0,0,1,3.71-3.52.4.4,0,0,0,.27-.51.41.41,0,0,0-.51-.26,7,7,0,0,0-4.23,4,.39.39,0,0,0,.25.51A.2.2,0,0,0,114.25,313.56Z" transform="translate(-5.61 -1.17)"/><path class="cls-17" d="M117.08,312.39a.34.34,0,0,0,.22-.05.4.4,0,0,0,.16-.55,3.71,3.71,0,0,0-1.45-1.31.42.42,0,0,0-.55.17.41.41,0,0,0,.18.55,2.81,2.81,0,0,1,1.11,1A.42.42,0,0,0,117.08,312.39Z" transform="translate(-5.61 -1.17)"/><path class="cls-15" d="M118.09,311.59c-.07.94-.16,1.82-.29,2.62-1.2,7.2-7.52,21.82-20.19,14.37a29.93,29.93,0,0,1-7.06-5.48,21.93,21.93,0,0,1-3.28-4.7,13.83,13.83,0,0,1-.73-2.11c0-.12-.08-.25-.11-.37a1.87,1.87,0,0,1-.07-.22,56.29,56.29,0,0,1-1.48-6.14c-.46-2.48-.75-4.79-.94-6.69a9.94,9.94,0,0,1,4.06-9c7.69-5.61,16.57-4.87,22.54-3.33A9.91,9.91,0,0,1,118,299.5c.14,2,.25,4.33.28,6.62C118.25,308,118.22,309.89,118.09,311.59Z" transform="translate(-5.61 -1.17)"/><path class="cls-6" d="M112.77,304.68a.66.66,0,0,1,.7-.64,11.66,11.66,0,0,1,3.36.55c2.36.8,2.68,1.47,2.68,1.47s-.29.28-3.38-.34a27.37,27.37,0,0,0-2.75-.32.67.67,0,0,1-.61-.7Z" transform="translate(-5.61 -1.17)"/><path class="cls-6" d="M104.17,304.21a.8.8,0,0,0-.67-.92,14.31,14.31,0,0,0-4.07-.13c-3,.41-3.49,1.12-3.49,1.12s.28.39,4,.37c1,0,2.22.15,3.31.26a.81.81,0,0,0,.87-.69Z" transform="translate(-5.61 -1.17)"/><path class="cls-16" d="M106.22,317.14a.2.2,0,0,0,.11,0l2.65-1-1.08-6.42a.54.54,0,0,0-1.07.17l.93,5.56-1.82.71a.54.54,0,0,0,.28,1Z" transform="translate(-5.61 -1.17)"/><path class="cls-16" d="M91.58,315.71a5.35,5.35,0,0,1-4.31,2.69c-.26-.69-.5-1.4-.73-2.11C88,316.55,90.2,316.72,91.58,315.71Z" transform="translate(-5.61 -1.17)"/><path class="cls-6" d="M90.55,323.1a21.93,21.93,0,0,1-3.28-4.7,13.83,13.83,0,0,1-.73-2.11c0-.12-.08-.25-.11-.37a6.76,6.76,0,0,1,1.62.37S91.45,320.17,90.55,323.1Z" transform="translate(-5.61 -1.17)"/><path class="cls-7" d="M110.45,320.28c-.62,1.83-2.32,5.11-6.5,4.55s-4.93-3.87-5-6.09Z" transform="translate(-5.61 -1.17)"/><path class="cls-6" d="M102.18,309.79c-.06,1-.63,1.81-1.27,1.77s-1.12-.89-1.07-1.9.63-1.81,1.28-1.77S102.24,308.77,102.18,309.79Z" transform="translate(-5.61 -1.17)"/><path class="cls-6" d="M115.33,310.54c-.06,1-.63,1.81-1.28,1.78s-1.12-.89-1.06-1.91.63-1.81,1.27-1.77S115.38,309.53,115.33,310.54Z" transform="translate(-5.61 -1.17)"/><path class="cls-15" d="M87.81,308.13s-2.89-3-4.37,0,1.47,10.28,6.61,8.15Z" transform="translate(-5.61 -1.17)"/><path class="cls-7" d="M86.73,315.74a.61.61,0,1,0,.5-.7A.61.61,0,0,0,86.73,315.74Z" transform="translate(-5.61 -1.17)"/><path class="cls-16" d="M88.53,313.87a.38.38,0,0,1-.4-.23,5.88,5.88,0,0,0-3.74-3.06.38.38,0,1,1,.17-.75,6.57,6.57,0,0,1,4.27,3.51.39.39,0,0,1-.2.5Z" transform="translate(-5.61 -1.17)"/><path class="cls-16" d="M85.78,313a.35.35,0,0,1-.22,0,.38.38,0,0,1-.18-.51,3.58,3.58,0,0,1,1.27-1.33.39.39,0,0,1,.53.13.38.38,0,0,1-.13.52,2.83,2.83,0,0,0-1,1A.4.4,0,0,1,85.78,313Z" transform="translate(-5.61 -1.17)"/><path class="cls-6" d="M84.44,306.92a4.82,4.82,0,0,1,2.85.19,3.38,3.38,0,0,1,1.22,1l.21.28a5.51,5.51,0,0,0,.9,1.45c.55.8,1.38,2.42,1.63,2,.66-1.06.22-6.55.46-7.53a6.78,6.78,0,0,1,2-2.87c12.77,4,22.87-7,22.87-7-4-12.15-25.42-6.36-30.95-3.42S78.17,308,84.44,306.92Z" transform="translate(-5.61 -1.17)"/><path class="cls-6" d="M113.7,295.28s-1.09,8.44,4.72,11.42C118.42,306.7,120.92,289.56,113.7,295.28Z" transform="translate(-5.61 -1.17)"/><path class="cls-15" d="M86.81,425s5.82,1.13,7.77,2.8,5.93,4.7,3.51,4.54a11.75,11.75,0,0,1-2.84-1.23c-1.27-.72-2-1-2.34-.6-.75.72,2.85,4.26,4.09,6.11s4.22,5.22,3.6,6.72-3.35-2.54-4.74-4.08-2-2.62-2.29-2.33,6.26,6.91,5.83,9.08-7.3-6.88-8.13-7,5.32,6,5.6,7.31-3.71-1.75-7-5.1c0,0-.64,0,0,.65s3.17,3,3.45,4.31-5.66-3.78-8.6-7.32a17.31,17.31,0,0,1-3.38-8.43S85.4,428.06,86.81,425Z" transform="translate(-5.61 -1.17)"/><path class="cls-14" d="M54.54,389.86A19.17,19.17,0,0,0,60,391.55a14.74,14.74,0,0,0,6.31-.34l.26-.69L78,359.27s-.47-13.84-7.46-17.82C70.54,341.45,58,368.3,54.54,389.86Z" transform="translate(-5.61 -1.17)"/><path class="cls-14" d="M56.08,403c3.67,8.08,25,28.63,25,28.63,2.65-1.06,4.42-3.58,5.86-6.62,0,0-10.1-13.38-13.56-19.81-2.84-5.26-5.79-11.28-6.77-13.28l-.33-.68-4.49-.52-7.24-.83S52.41,394.89,56.08,403Z" transform="translate(-5.61 -1.17)"/><path class="cls-10" d="M60,391.83a.82.82,0,0,0,.14.26.7.7,0,0,0,.7.21,15.58,15.58,0,0,1,5.78-.41l-.33-.68.26-.69a17.29,17.29,0,0,0-4.75.17c-.44.08-.88.18-1.33.3a.69.69,0,0,0-.49.56A.67.67,0,0,0,60,391.83Z" transform="translate(-5.61 -1.17)"/><polygon class="cls-21" points="164.04 186.47 158.58 198.42 158.58 189.62 164.04 186.47"/><polygon class="cls-13" points="158.58 198.42 155.87 196.86 155.87 191.18 158.58 189.62 158.58 198.42"/><polygon class="cls-12" points="133.19 156.66 133.19 196.41 140.06 200.38 139.47 160.31 133.19 156.66"/><polygon class="cls-14" points="175.06 139.76 175.06 180.17 140.06 200.38 139.47 160.31 175.06 139.76"/><path class="cls-7" d="M161.66,176.83l5.43-3.12.79-18.37L159.73,160Zm3.08,9.76a8.49,8.49,0,0,0,3.83-7.18c-.09-2.73-1.79-3.86-4.14-2.51A8.24,8.24,0,0,0,160.6,184C160.68,186.68,162.38,187.94,164.74,186.59Z" transform="translate(-5.61 -1.17)"/><polygon class="cls-12" points="133.19 156.66 168.79 136.1 175.06 139.76 139.47 160.31 133.19 156.66"/><polygon class="cls-21" points="55.39 135.34 50.13 146.86 50.13 138.38 55.39 135.34"/><polygon class="cls-13" points="50.13 146.86 47.52 145.35 47.52 139.88 50.13 138.38 50.13 146.86"/><polygon class="cls-12" points="37.48 99.8 37.48 138.09 44.11 141.92 43.53 103.31 37.48 99.8"/><polygon class="cls-14" points="92.02 75.32 92.02 114.25 44.11 141.92 43.53 103.31 92.02 75.32"/><path class="cls-7" d="M66.38,108.71c1.79,0,2.91,2.36,2.51,5.21s-2.18,5.12-4,5.09-2.91-2.36-2.51-5.21S64.59,108.68,66.38,108.71Z" transform="translate(-5.61 -1.17)"/><path class="cls-7" d="M75.76,103.71c1.79,0,2.91,2.36,2.51,5.21s-2.18,5.13-4,5.09-2.91-2.36-2.51-5.21S74,103.68,75.76,103.71Z" transform="translate(-5.61 -1.17)"/><path class="cls-7" d="M85.21,98.71c1.79,0,2.91,2.37,2.51,5.21s-2.19,5.13-4,5.1-2.92-2.37-2.51-5.21S83.42,98.68,85.21,98.71Z" transform="translate(-5.61 -1.17)"/><polygon class="cls-12" points="37.48 99.8 85.95 71.81 92 75.33 43.53 103.31 37.48 99.8"/><path class="cls-3" d="M453.41,37.43v82a1,1,0,0,1-.51.89L352.58,178.28a1,1,0,0,1-1.54-.89V95.49a1,1,0,0,1,.52-.89L451.87,36.54a1,1,0,0,1,.52-.14A1,1,0,0,1,453.41,37.43Z" transform="translate(-5.61 -1.17)"/><polygon class="cls-21" points="411.18 124.49 405.7 136.47 405.7 127.65 411.18 124.49"/><polygon class="cls-13" points="405.71 136.47 403 134.9 403 129.22 405.7 127.65 405.71 136.47"/><polygon class="cls-12" points="380.27 94.63 380.27 134.45 387.16 138.43 386.56 98.29 380.27 94.63"/><polygon class="cls-14" points="422.22 77.7 422.22 118.18 387.16 138.43 386.56 98.29 422.22 77.7"/><polygon class="cls-12" points="380.27 94.63 415.93 74.04 422.22 77.7 386.56 98.29 380.27 94.63"/><path class="cls-7" d="M421.6,102.29c.09,6.18-5,14.32-11.43,18.15s-11.69,1.92-11.78-4.26,5-14.31,11.44-18.14S421.51,96.11,421.6,102.29Zm-6.45,8a18.24,18.24,0,0,0,.56-4.29l-5.24,3.14,0,3.92Zm-2.65,7.55a24.41,24.41,0,0,0,6.88-9.17l-3.54,2.12a23.83,23.83,0,0,1-2,4.78A25,25,0,0,1,412.5,117.87Zm-2-3.88.08,5.26a23.56,23.56,0,0,0,4.23-7.83Zm3.89-13a6.17,6.17,0,0,0-3.71-2.58l-.41.23.07,4.77Zm4.49-2.69c-1.52-1.36-3.89-1.58-6.57-.61a6.25,6.25,0,0,1,1.5.87,6.54,6.54,0,0,1,1.6,1.82Zm-3.23,6.8a8.51,8.51,0,0,0-.86-3.44l-4.44,2.65.06,3.93Zm4.94-3a6.05,6.05,0,0,0-1.17-3.26l-3.64,2.19a9.72,9.72,0,0,1,.81,3.47Zm-4,3.3a18.6,18.6,0,0,1-.52,4.27l3.71-2.22a14,14,0,0,0,.84-4.46Zm-13.18,7.89-4.13,2.47a6.54,6.54,0,0,0,1,3.39l3.81-2.28A11.79,11.79,0,0,1,403.46,113.36Zm6-9.36-.08-4.77-.29.19a31.29,31.29,0,0,0-2.32,4,29,29,0,0,0-1.26,3Zm-4.32,3.49a17,17,0,0,0-.74,4.41l5.13-3.07-.06-3.93Zm-.65-.52a28.37,28.37,0,0,1,1.52-3.68c.45-.92.95-1.81,1.47-2.68a24.7,24.7,0,0,0-6.56,8.5Zm-.09,5.83a11.1,11.1,0,0,0,.68,3.56l4.52-2.71-.06-3.92Zm-.94-.34a18.31,18.31,0,0,1,.69-4.38l-3.75,2.25a14.74,14.74,0,0,0-1.05,4.59Zm-2.68,7.38c1.54,1.68,4.18,2,7.16.8a5.44,5.44,0,0,1-1.45-.61,5.61,5.61,0,0,1-2.07-2.37Zm4.64-2.77a4.85,4.85,0,0,0,4.27,2.67l-.07-5.19Z" transform="translate(-5.61 -1.17)"/><g class="cls-22"><path class="cls-6" d="M365.31,103.87a1.24,1.24,0,0,0,.64-.18l75.3-43.55a1.29,1.29,0,0,0,.46-1.76,1.27,1.27,0,0,0-1.75-.47l-75.29,43.56a1.29,1.29,0,0,0,.64,2.4Z" transform="translate(-5.61 -1.17)"/></g><g class="cls-22"><path class="cls-6" d="M365.31,163.05a1.24,1.24,0,0,0,.64-.18l75.3-43.55a1.29,1.29,0,0,0,.46-1.76,1.27,1.27,0,0,0-1.75-.47l-75.29,43.56a1.29,1.29,0,0,0,.64,2.4Z" transform="translate(-5.61 -1.17)"/></g><path class="cls-8" d="M453.41,37.43v3.89L351,100.54V95.49a1,1,0,0,1,.52-.89L451.87,36.54a1,1,0,0,1,.52-.14A1,1,0,0,1,453.41,37.43Z" transform="translate(-5.61 -1.17)"/><path class="cls-9" d="M355.94,95.17c0,.68-.47,1.23-1,1.23s-.88-.55-.84-1.23.47-1.24,1-1.24S356,94.48,355.94,95.17Z" transform="translate(-5.61 -1.17)"/><path class="cls-4" d="M358.82,93.71c0,.68-.47,1.24-1,1.24s-.88-.56-.84-1.24.47-1.24,1-1.24S358.86,93,358.82,93.71Z" transform="translate(-5.61 -1.17)"/><path class="cls-10" d="M361.38,92.29c0,.68-.47,1.24-1,1.24s-.88-.56-.84-1.24.47-1.24,1-1.24S361.42,91.61,361.38,92.29Z" transform="translate(-5.61 -1.17)"/><ellipse class="cls-3" cx="430.71" cy="386.68" rx="35.13" ry="12.99" transform="translate(-128.08 215.15) rotate(-24.8)"/><path class="cls-12" d="M423.61,400.21l-15-8.37a5.12,5.12,0,0,1-2.61-4.45v-75l17.05,9.84Z" transform="translate(-5.61 -1.17)"/><path class="cls-14" d="M423.08,322.26,457,303v74.74a5.28,5.28,0,0,1-2.63,4.57l-30.71,17.89Z" transform="translate(-5.61 -1.17)"/><path class="cls-12" d="M427.48,355.14l4-2.67.1,14.92c0,1.95,1.4,2.6,3.11,1.47h0a7.46,7.46,0,0,0,3.07-5.57l-.1-14.92,4-2.66-3.58-1.61-3.58-1.61L431,348.82Z" transform="translate(-5.61 -1.17)"/><path class="cls-12" d="M440.07,361l4-2.66L444,343.37a7.43,7.43,0,0,1,3.07-5.57h0c1.7-1.14,3.1-.48,3.11,1.47l.1,14.91,4-2.66-3.53,6.32-3.52,6.32-3.58-1.6Z" transform="translate(-5.61 -1.17)"/><path class="cls-12" d="M406,312.42l31.76-18.09a4.39,4.39,0,0,1,4.43,0L457,303l-33.87,19.25Z" transform="translate(-5.61 -1.17)"/><polygon class="cls-23" points="420.07 315.68 410.38 310.26 410.38 290.26 419.86 284.86 419.94 295.59 420.07 315.68"/><polygon class="cls-19" points="438.44 285.07 438.44 304.98 420.07 315.68 419.94 295.59 419.86 284.86 429.11 279.58 438.44 285.07"/><polygon class="cls-3" points="438.44 285.07 419.94 295.59 419.78 295.68 419.78 295.68 410.38 290.26 419.86 284.86 429.11 279.59 432.63 281.65 438.44 285.07"/><polygon class="cls-23" points="438.44 285.07 438.39 285.1 419.94 295.59 419.78 295.68 415.3 293.09 413.94 292.3 423.41 286.9 432.63 281.65 438.44 285.07"/><polygon class="cls-24" points="438.44 285.07 419.94 295.59 419.78 295.68 415.3 293.09 424.71 287.73 433.98 282.44 438.44 285.07"/><polygon class="cls-23" points="435.27 300.47 431.36 302.73 431.36 296.77 435.27 294.51 435.27 300.47"/><polygon class="cls-23" points="429.15 303.68 425.24 305.94 425.24 299.98 429.15 297.73 429.15 303.68"/><path class="cls-3" d="M226.83,532.13l-19,10.65A4.25,4.25,0,0,0,208,550l104.43,60.28a12.54,12.54,0,0,0,12.58,0L530,491a3,3,0,0,0,.09-5.06l-19.69-12.19L322.51,582.2Z" transform="translate(-5.61 -1.17)"/><path class="cls-6" d="M315.66,595.51a10,10,0,0,1-4.4-.85h0l-1.92-1.12h0l-.8-.46-89.08-51.78a5.22,5.22,0,0,1-2.59-4.51v-9.86a3.06,3.06,0,0,1,1.53-2.57l9.35-5.39,87.33,50.43.33,14.64Z" transform="translate(-5.61 -1.17)"/><path class="cls-4" d="M517.14,467.49V477a6.82,6.82,0,0,1-3.4,5.89L321.62,593.77l-.43.25,0,0a13,13,0,0,1-5.49,1.47L315.39,584l-.33-14.64,191-109.52h0l9.56,5.48A3.06,3.06,0,0,1,517.14,467.49Z" transform="translate(-5.61 -1.17)"/><polygon class="cls-7" points="247.67 520.79 332.55 570.11 497.6 474.8 412.15 425.82 247.67 520.79"/><polygon class="cls-7" points="247.67 520.79 332.55 570.11 497.6 474.8 412.15 425.82 247.67 520.79"/><path class="cls-11" d="M249.53,552.47V555a.55.55,0,0,0,.28.49l24.25,14a.56.56,0,0,0,.84-.49v-2.52a.55.55,0,0,0-.28-.49l-24.25-14A.56.56,0,0,0,249.53,552.47Z" transform="translate(-5.61 -1.17)"/><path class="cls-5" d="M249.53,552.47v1.43a.54.54,0,0,0,.28.48l24.25,14a.56.56,0,0,0,.84-.49v-1.43a.55.55,0,0,0-.28-.49l-24.25-14A.56.56,0,0,0,249.53,552.47Z" transform="translate(-5.61 -1.17)"/><path class="cls-11" d="M282.57,572.91c.07,1.48.75,2.65,1.52,2.62a.77.77,0,0,0,.26-.07c.62-.27,1-1.38,1-2.69a3,3,0,0,0-1.17-2.56.79.79,0,0,0-.34-.06C283.06,570.19,282.5,571.42,282.57,572.91Z" transform="translate(-5.61 -1.17)"/><path class="cls-5" d="M283.17,572.91a3,3,0,0,0,1.18,2.55c.62-.27,1-1.38,1-2.69a3,3,0,0,0-1.17-2.56C283.53,570.49,283.11,571.6,283.17,572.91Z" transform="translate(-5.61 -1.17)"/><path class="cls-5" d="M517.13,468.55a3,3,0,0,1-1.48,2.13L322.51,582.2a13.65,13.65,0,0,1-13.7,0l-90.43-52.51a3,3,0,0,1-1.53-2.56v-.19a3.06,3.06,0,0,1,1.53-2.57l9.35-5.39L264,498l96.95-56,55.28-31.92a3.06,3.06,0,0,1,3.07,0l86.81,49.74h0l9.56,5.48a3,3,0,0,1,1.49,2.14A2.7,2.7,0,0,1,517.13,468.55Z" transform="translate(-5.61 -1.17)"/><path class="cls-4" d="M266.1,545.05c-.23,4.54,5.16,6.85,11.52,6.85s11.8-2,11.52-7c-.19-3.26-5.16-4.84-11.52-4.84S266.27,541.78,266.1,545.05Z" transform="translate(-5.61 -1.17)"/><ellipse class="cls-11" cx="272.01" cy="543.75" rx="11.52" ry="5.91"/><path class="cls-25" d="M268.6,544.53c0,2.56,4,4.64,9,4.64s9-2.08,9-4.64-4-4.63-9-4.63S268.6,542,268.6,544.53Z" transform="translate(-5.61 -1.17)"/><path class="cls-7" d="M496.56,469.62,492,472.26,476.79,481,442.73,500.7l-37,21.35-14.84,8.57-27,15.61-23.57,13.59a7.45,7.45,0,0,1-7.46,0l-3-1.76L299.31,540.3l-14.84-8.6L255.69,515a2.66,2.66,0,0,1,0-4.61l28.76-16.6,14.85-8.57,30.53-17.63L363.9,447.9l27-15.62,14.84-8.57,1.1-.63,5.63-3.24a7.46,7.46,0,0,1,7.44,0l22.81,13.08,34.06,19.52,19.75,11.32A3.39,3.39,0,0,1,496.56,469.62Z" transform="translate(-5.61 -1.17)"/><path class="cls-3" d="M332.09,541.36a2.07,2.07,0,0,1-1-.27l-52.45-30.48a2,2,0,1,1,2-3.49l52.45,30.48a2,2,0,0,1-1,3.76Z" transform="translate(-5.61 -1.17)"/><path class="cls-3" d="M346.27,533.55a2.08,2.08,0,0,1-1-.27L292.8,502.8a2,2,0,1,1,2-3.49l52.45,30.47a2,2,0,0,1-1,3.77Z" transform="translate(-5.61 -1.17)"/><path class="cls-3" d="M360.44,525.74a2,2,0,0,1-1-.28L307,495a2,2,0,0,1,2-3.5L361.46,522a2,2,0,0,1-1,3.77Z" transform="translate(-5.61 -1.17)"/><path class="cls-3" d="M374.62,517.92a2.07,2.07,0,0,1-1-.27l-52.45-30.48a2,2,0,1,1,2-3.49l52.45,30.48a2,2,0,0,1-1,3.76Z" transform="translate(-5.61 -1.17)"/><path class="cls-3" d="M388.8,510.11a2,2,0,0,1-1-.27l-52.45-30.48a2,2,0,0,1,2-3.49l52.45,30.47a2,2,0,0,1-1,3.77Z" transform="translate(-5.61 -1.17)"/><path class="cls-3" d="M403,502.3a2,2,0,0,1-1-.28l-52.45-30.47a2,2,0,0,1,2-3.5L404,498.53a2,2,0,0,1-1,3.77Z" transform="translate(-5.61 -1.17)"/><path class="cls-3" d="M417.15,494.48a2.07,2.07,0,0,1-1-.27l-52.45-30.48a2,2,0,1,1,2-3.49l52.45,30.48a2,2,0,0,1-1,3.76Z" transform="translate(-5.61 -1.17)"/><path class="cls-3" d="M431.33,486.67a2.07,2.07,0,0,1-1-.27l-52.45-30.48a2,2,0,1,1,2-3.49l52.45,30.47a2,2,0,0,1-1,3.77Z" transform="translate(-5.61 -1.17)"/><path class="cls-3" d="M445.51,478.86a1.93,1.93,0,0,1-1-.28l-52.45-30.47a2,2,0,1,1,2-3.49l52.45,30.47a2,2,0,0,1-1,3.77Z" transform="translate(-5.61 -1.17)"/><path class="cls-3" d="M459.69,471a2.08,2.08,0,0,1-1-.27L406.22,440.3a2,2,0,0,1,2-3.5l52.45,30.48a2,2,0,0,1-1,3.76Z" transform="translate(-5.61 -1.17)"/><path class="cls-5" d="M496.56,469.62,492,472.26l-85.13-49.18,5.63-3.24a7.46,7.46,0,0,1,7.44,0l22.81,13.08,34.06,19.52,19.75,11.32A3.39,3.39,0,0,1,496.56,469.62Z" transform="translate(-5.61 -1.17)"/><path class="cls-11" d="M465.22,451.55a2.35,2.35,0,0,1-.8-.26l-31.19-17.86c-.7-.4-.74-1.05-.1-1.44a2.63,2.63,0,0,1,2.44,0l31.2,17.86c.7.4.74,1,.09,1.44A2.49,2.49,0,0,1,465.22,451.55Z" transform="translate(-5.61 -1.17)"/><path class="cls-12" d="M329.57,484h0a1,1,0,0,0,.49,1.07l54.44,31.43a.91.91,0,0,0,.38.13,1,1,0,0,0,.67-.14l34.57-21.17a1,1,0,0,0,.49-.9v-9.22l-7.21,4.49-46.7-27a1,1,0,0,0-1,0l-27.49,15.88-1,.58-7.62-4.29Z" transform="translate(-5.61 -1.17)"/><path class="cls-13" d="M329.57,484h0a1,1,0,0,0,.49,1.07l54.44,31.43a.91.91,0,0,0,.38.13V505.93l-46.69-27.34-1,.58-7.62-4.29Z" transform="translate(-5.61 -1.17)"/><path class="cls-14" d="M329.91,475.81l.17.12,54.44,31.43a.72.72,0,0,0,.24.1,1,1,0,0,0,.81-.11l.83-.51,33.74-20.66a1,1,0,0,0,.34-.35,1,1,0,0,0-.36-1.41l-.71-.41-52.26-30.17-.43-.25a1,1,0,0,0-1,0l-.3.18-35.26,20.35h0l-.05,0A1,1,0,0,0,329.91,475.81Z" transform="translate(-5.61 -1.17)"/><path class="cls-12" d="M365.4,453.77l5.05,14.84.53,1.58,2.7,7.95a.86.86,0,0,0,.66.55l11.07,1.71,1.64.25,33.43,5.18a1,1,0,0,0-.36-1.41l-.71-.41-44.33-6.87-2.75-8.08h0l0-.06v0l-5.15-15.14-.43-.25a1,1,0,0,0-1,0Z" transform="translate(-5.61 -1.17)"/><path class="cls-12" d="M384.75,507.33a.57.57,0,0,0,0,.13,1,1,0,0,0,.81-.11l.83-.51.65-26.19v-.36a.81.81,0,0,0-.79-.84h0a.83.83,0,0,0-.82.8v.15Z" transform="translate(-5.61 -1.17)"/><path class="cls-12" d="M329.91,475.81,371,470.19l.67-.09a.82.82,0,0,0,.71-.92c0-.05,0-.08,0-.12h0l0-.06v0a.82.82,0,0,0-.87-.51l-1,.14-40.31,5.51h0l-.05,0A1,1,0,0,0,329.91,475.81Z" transform="translate(-5.61 -1.17)"/><ellipse class="cls-3" cx="564.07" cy="592.89" rx="32.04" ry="9.1"/><path class="cls-5" d="M537.93,544.34l13.43,44.94a7.87,7.87,0,0,0,4.14,5.13q15.27,7.62,30.51,0a7.87,7.87,0,0,0,4.14-5.13l13.65-44.5-33-5.08Z" transform="translate(-5.61 -1.17)"/><ellipse class="cls-4" cx="565.15" cy="540.82" rx="33.12" ry="17.52"/><path class="cls-6" d="M547.85,542c0,5.65,10.25,10.23,22.9,10.23s22.91-4.58,22.91-10.23-10.25-10.23-22.91-10.23S547.85,536.34,547.85,542Z" transform="translate(-5.61 -1.17)"/><path class="cls-12" d="M584,542.93H566.35c-7.81-2.47-31.51-17.44-27.35-30.18,8.75-26.84-4.73-17-8.46-27.13-8.85-24.07,16.79-19.06-.12-40.33s-.92-33.9,11.88-22.55,10.52,28.27,22.87,37.42-5.94,21.49,1.37,35.21,13.72,10.06,17.38,25.61C586.13,530.36,587,538.52,584,542.93Z" transform="translate(-5.61 -1.17)"/><path class="cls-14" d="M573,542.93h-1.31c-1.15-15.17-8.06-32.32-13.78-36.81-7.44-5.83-10.18-17-7.72-31.47,2.26-13.29-6.52-27-6.61-27.11a.66.66,0,1,1,1.1-.72c.37.58,9.15,14.25,6.8,28.05-2.37,14,.19,24.7,7.24,30.22C564.64,509.74,571.8,527.41,573,542.93Z" transform="translate(-5.61 -1.17)"/><path class="cls-14" d="M567,542.93h15.35c6.78-2.14,27.38-15.16,23.77-26.23-7.61-23.33,4.11-14.76,7.35-23.58,7.7-20.93-14.59-16.57.11-35.06s.8-29.47-10.33-19.6S594.15,463,583.41,471s5.17,18.68-1.19,30.61-11.93,8.74-15.11,22.26C565.2,532,564.49,539.09,567,542.93Z" transform="translate(-5.61 -1.17)"/><path class="cls-10" d="M576.63,542.93h1.14c1-13.18,7-28.09,12-32,6.47-5.07,8.85-14.78,6.71-27.35-2-11.55,5.67-23.44,5.75-23.56a.57.57,0,0,0-1-.63c-.32.51-8,12.39-5.91,24.38,2.06,12.14-.17,21.47-6.29,26.27C583.87,514.08,577.65,529.44,576.63,542.93Z" transform="translate(-5.61 -1.17)"/></g></g></svg>